# This file uses centimeters as units for non-parametric coordinates.

mtllib Hat .mtl
g default
v 0.879000 0.120537 -0.461334
v 0.563923 0.120537 -0.816982
v 0.119658 0.120537 -0.985470
v -0.352019 0.120537 -0.928200
v -0.743053 0.120537 -0.658287
v -0.963863 0.120537 -0.237572
v -0.963863 0.120537 0.237572
v -0.743053 0.120537 0.658287
v -0.352020 0.120537 0.928200
v 0.119658 0.120537 0.985470
v 0.563923 0.120537 0.816982
v 0.879000 0.120537 0.461334
v 0.992709 0.120537 0.000000
v 0.827916 0.192294 -0.434525
v 0.531150 0.192294 -0.769505
v 0.112704 0.192294 -0.928200
v -0.331561 0.192294 -0.874256
v -0.699870 0.192294 -0.620029
v -0.907846 0.192294 -0.223763
v -0.907846 0.192294 0.223763
v -0.699870 0.192294 0.620029
v -0.331561 0.192294 0.874256
v 0.112704 0.192294 0.928200
v 0.531150 0.192294 0.769505
v 0.827916 0.192294 0.434525
v 0.935016 0.192294 0.000000
v 0.728716 0.568065 -0.382458
v 0.467508 0.568065 -0.677303
v 0.099200 0.568065 -0.816982
v -0.291834 0.568065 -0.769505
v -0.616012 0.568065 -0.545738
v -0.799069 0.568065 -0.196953
v -0.799069 0.568065 0.196953
v -0.616012 0.568065 0.545738
v -0.291834 0.568065 0.769505
v 0.099200 0.568065 0.816982
v 0.467508 0.568065 0.677303
v 0.728716 0.568065 0.382462
v 0.822984 0.568065 0.000000
v 0.587166 0.748511 -0.308167
v 0.376697 0.748511 -0.545738
v 0.079931 0.748511 -0.658287
v -0.235146 0.748511 -0.620029
v -0.496354 0.748511 -0.439732
v -0.643854 0.748511 -0.158695
v -0.643854 0.748511 0.158695
v -0.496355 0.748511 0.439732
v -0.235147 0.748511 0.620029
v 0.079931 0.748511 0.658287
v 0.376697 0.748511 0.545738
v 0.587166 0.748511 0.308170
v 0.663123 0.748511 0.000000
v 0.411492 0.885456 -0.215969
v 0.263993 0.885456 -0.382462
v 0.056016 0.885456 -0.461334
v -0.164793 0.885456 -0.434525
v -0.347850 0.885456 -0.308170
v -0.451219 0.885456 -0.111217
v -0.451219 0.885456 0.111214
v -0.347850 0.885456 0.308167
v -0.164793 0.885456 0.434525
v 0.056016 0.885456 0.461334
v 0.263993 0.885456 0.382462
v 0.411492 0.885456 0.215969
v 0.464723 0.885456 0.000000
v 0.211904 0.970942 -0.111214
v 0.135947 0.970942 -0.196953
v 0.028846 0.970942 -0.237572
v -0.084862 0.970942 -0.223763
v -0.179130 0.970942 -0.158695
v -0.232362 0.970942 -0.057274
v -0.232362 0.970942 0.057270
v -0.179130 0.970942 0.158695
v -0.084863 0.970942 0.223763
v 0.028846 0.970942 0.237572
v 0.135947 0.970942 0.196953
v 0.211904 0.970942 0.111214
v 0.239316 0.970942 0.000000
v 0.000000 1.000000 0.000000
v 1.674605 -0.220498 -0.878895
v 1.074344 -0.220502 -1.556454
v 0.227968 -0.220502 -1.877441
v -0.670637 -0.220496 -1.768337
v -1.415609 -0.220494 -1.254116
v -1.836276 -0.220494 -0.452602
v -1.836276 -0.220495 0.452602
v -1.415607 -0.220494 1.254120
v -0.670646 -0.220496 1.768333
v 0.227964 -0.220502 1.877441
v 1.074345 -0.220502 1.556450
v 1.674603 -0.220498 0.878899
v 1.891232 -0.220496 0.000000
v 0.976000 0.057376 -1.413990
v 1.057954 -0.103455 -1.532715
v 1.649060 -0.103452 -0.865490
v 1.521319 0.057378 -0.798447
v 0.207104 0.057375 -1.705589
v 0.224493 -0.103456 -1.848801
v -0.609258 0.057380 -1.606468
v -0.660411 -0.103450 -1.741360
v -1.286034 0.057382 -1.139317
v -1.394017 -0.103448 -1.234982
v -1.668191 0.057382 -0.411171
v -1.808265 -0.103448 -0.445698
v -1.668192 0.057381 0.411171
v -1.808265 -0.103448 0.445698
v -1.286031 0.057382 1.139320
v -1.394014 -0.103447 1.234985
v -0.609250 0.057381 1.606472
v -0.660412 -0.103450 1.741360
v 0.207100 0.057377 1.705589
v 0.224488 -0.103454 1.848804
v 0.975998 0.057377 1.413990
v 1.057953 -0.103454 1.532711
v 1.521318 0.057379 0.798450
v 1.649058 -0.103452 0.865494
v 1.718117 0.057381 0.000000
v 1.862383 -0.103449 0.000000
vt 0.299513 0.704641
vt 0.299513 0.651879
vt 0.349546 0.648310
vt 0.349546 0.694750
vt 0.299513 0.592292
vt 0.349546 0.595862
vt 0.373572 0.643216
vt 0.373572 0.680635
vt 0.299513 0.738491
vt 0.349546 0.724544
vt 0.299513 0.539530
vt 0.349546 0.549422
vt 0.373572 0.600956
vt 0.391806 0.636894
vt 0.391806 0.663118
vt 0.299513 0.505681
vt 0.349546 0.519628
vt 0.373572 0.563537
vt 0.391806 0.607278
vt 0.391806 0.581054
vt 0.001864 0.887288
vt 0.001864 0.829432
vt 0.051897 0.829432
vt 0.051897 0.880356
vt 0.001864 0.771576
vt 0.051897 0.778509
vt 0.075923 0.829432
vt 0.075923 0.870464
vt 0.001864 0.931890
vt 0.051897 0.919613
vt 0.001864 0.726974
vt 0.051897 0.739251
vt 0.075923 0.788400
vt 0.094157 0.829432
vt 0.094157 0.858188
vt 0.075923 0.902096
vt 0.075923 0.756768
vt 0.094157 0.800676
vt 0.440288 0.908113
vt 0.440288 0.801393
vt 0.455872 0.800474
vt 0.455872 0.905565
vt 0.440288 0.680867
vt 0.455872 0.681787
vt 0.477287 0.892827
vt 0.477287 0.795877
vt 0.440288 0.976580
vt 0.455872 0.972988
vt 0.440288 0.574147
vt 0.455873 0.576695
vt 0.477287 0.686384
vt 0.440288 0.505681
vt 0.455872 0.509272
vt 0.477287 0.589432
vt 0.397548 0.829942
vt 0.397548 0.712919
vt 0.413132 0.712919
vt 0.413132 0.828157
vt 0.397548 0.595896
vt 0.413132 0.597681
vt 0.434546 0.819231
vt 0.434547 0.712919
vt 0.397547 0.920156
vt 0.413132 0.916996
vt 0.397547 0.505681
vt 0.413132 0.508842
vt 0.434546 0.606608
vt 0.434546 0.901188
vt 0.434546 0.524649
vt 0.251119 0.655492
vt 0.223096 0.687124
vt 0.208089 0.665384
vt 0.227729 0.643216
vt 0.183582 0.702109
vt 0.180398 0.675885
vt 0.191040 0.640684
vt 0.201154 0.629268
vt 0.235187 0.704641
vt 0.186148 0.723239
vt 0.141630 0.697015
vt 0.150998 0.672316
vt 0.176780 0.646092
vt 0.172939 0.614460
vt 0.234816 0.614460
vt 0.204804 0.614460
vt 0.134082 0.716918
vt 0.106851 0.673009
vt 0.126624 0.655492
vt 0.161640 0.644253
vt 0.227729 0.585704
vt 0.201154 0.599652
vt 0.090919 0.687124
vt 0.149089 0.635590
vt 0.208089 0.563536
vt 0.191040 0.588236
vt 0.112861 0.629268
vt 0.142001 0.622086
vt 0.223096 0.541796
vt 0.251119 0.573428
vt 0.180398 0.553034
vt 0.176780 0.582828
vt 0.112861 0.599652
vt 0.142001 0.606835
vt 0.183582 0.526811
vt 0.150998 0.556604
vt 0.161640 0.584667
vt 0.126624 0.573428
vt 0.149089 0.593330
vt 0.186148 0.505681
vt 0.235187 0.524279
vt 0.141630 0.531905
vt 0.134082 0.512002
vt 0.106851 0.555911
vt 0.090919 0.541796
vt 0.363397 0.190543
vt 0.321445 0.143190
vt 0.389406 0.044731
vt 0.469329 0.134946
vt 0.262292 0.120756
vt 0.276713 0.001992
vt 0.378537 0.251969
vt 0.498173 0.251969
vt 0.199489 0.128381
vt 0.157066 0.016519
vt 0.363397 0.313394
vt 0.469329 0.368992
vt 0.147424 0.164319
vt 0.057875 0.084986
vt 0.321445 0.360748
vt 0.389406 0.459206
vt 0.118024 0.220337
vt 0.001864 0.191706
vt 0.262292 0.383182
vt 0.276713 0.501946
vt 0.118024 0.283601
vt 0.001864 0.312232
vt 0.199489 0.375556
vt 0.157065 0.487418
vt 0.147424 0.339618
vt 0.057875 0.418952
vt 0.775865 0.854302
vt 0.815379 0.809701
vt 0.907703 0.858156
vt 0.835096 0.940114
vt 0.829639 0.751845
vt 0.933907 0.751845
vt 0.720150 0.875432
vt 0.732719 0.978940
vt 0.815379 0.693989
vt 0.907703 0.645533
vt 0.846008 0.955922
vt 0.735034 0.998008
vt 0.660997 0.868250
vt 0.624022 0.965742
vt 0.775865 0.649387
vt 0.835095 0.563575
vt 0.617211 0.983702
vt 0.611958 0.834400
vt 0.533911 0.903542
vt 0.720150 0.628257
vt 0.732718 0.524750
vt 0.519534 0.916279
vt 0.584266 0.781638
vt 0.483028 0.806591
vt 0.660997 0.635440
vt 0.624023 0.537947
vt 0.735034 0.505681
vt 0.846007 0.547768
vt 0.584266 0.722051
vt 0.483028 0.697098
vt 0.611958 0.669289
vt 0.533912 0.600147
vt 0.617211 0.519987
vt 0.519534 0.587409
vt 0.150563 0.726974
vt 0.150563 0.782690
vt 0.100530 0.784487
vt 0.100530 0.735448
vt 0.150563 0.841842
vt 0.100530 0.836553
vt 0.157067 0.841842
vt 0.157067 0.782689
vt 0.207100 0.784487
vt 0.207100 0.836553
vt 0.157067 0.726974
vt 0.207100 0.735448
vt 0.272445 0.505681
vt 0.272445 0.618374
vt 0.256861 0.618836
vt 0.256861 0.507863
vt 0.272445 0.738021
vt 0.256860 0.736659
vt 0.278187 0.738022
vt 0.278187 0.618374
vt 0.293771 0.618837
vt 0.293772 0.736659
vt 0.278187 0.505681
vt 0.293771 0.507863
vn 0.848546 0.285714 -0.445351
vn 0.544385 0.285715 -0.788677
vn 0.517958 0.410651 -0.750390
vn 0.807353 0.410650 -0.423730
vn 0.115512 0.285715 -0.951328
vn 0.109905 0.410651 -0.905145
vn -0.339824 0.285713 -0.896040
vn -0.323327 0.410650 -0.852541
vn -0.717310 0.285712 -0.635480
vn -0.682488 0.410648 -0.604630
vn -0.930469 0.285712 -0.229340
vn -0.885299 0.410648 -0.218208
vn -0.930468 0.285712 0.229340
vn -0.885299 0.410648 0.218207
vn -0.717310 0.285712 0.635480
vn -0.682488 0.410648 0.604630
vn -0.339824 0.285713 0.896040
vn -0.323327 0.410650 0.852541
vn 0.115512 0.285715 0.951328
vn 0.109905 0.410651 0.905145
vn 0.544384 0.285714 0.788679
vn 0.517956 0.410650 0.750392
vn 0.848547 0.285712 0.445351
vn 0.807353 0.410649 0.423732
vn 0.958315 0.285713 0.000000
vn 0.911794 0.410649 0.000000
vn 0.389345 0.728179 -0.564062
vn 0.606880 0.728179 -0.318515
vn 0.082614 0.728179 -0.680389
vn -0.243041 0.728180 -0.640848
vn -0.513020 0.728179 -0.454496
vn -0.665471 0.728179 -0.164024
vn -0.665470 0.728180 0.164024
vn -0.513019 0.728180 0.454495
vn -0.243041 0.728180 0.640847
vn 0.082614 0.728179 0.680389
vn 0.389342 0.728180 0.564063
vn 0.606879 0.728180 0.318515
vn 0.685387 0.728179 0.000000
vn 0.285485 0.864544 -0.413597
vn 0.444992 0.864544 -0.233550
vn 0.060576 0.864544 -0.498893
vn -0.178208 0.864544 -0.469900
vn -0.376168 0.864544 -0.333258
vn -0.487953 0.864544 -0.120270
vn -0.487952 0.864545 0.120269
vn -0.376169 0.864545 0.333255
vn -0.178209 0.864544 0.469898
vn 0.060576 0.864544 0.498893
vn 0.285483 0.864544 0.413597
vn 0.444991 0.864545 0.233549
vn 0.502556 0.864545 0.000000
vn 0.175511 0.951074 -0.254270
vn 0.273573 0.951074 -0.143581
vn 0.037240 0.951074 -0.306711
vn -0.109560 0.951074 -0.288885
vn -0.231261 0.951074 -0.204881
vn -0.299985 0.951074 -0.073940
vn -0.299986 0.951074 0.073939
vn -0.231263 0.951074 0.204880
vn -0.109561 0.951074 0.288885
vn 0.037240 0.951074 0.306711
vn 0.175511 0.951074 0.254270
vn 0.273573 0.951074 0.143581
vn 0.308964 0.951074 0.000000
vn -0.000000 1.000000 0.000000
vn -0.314203 -0.934923 0.164909
vn -0.201578 -0.934922 0.292039
vn -0.201578 -0.934922 0.292039
vn -0.314203 -0.934923 0.164909
vn -0.042776 -0.934922 0.352265
vn -0.042776 -0.934922 0.352265
vn 0.125828 -0.934924 0.331790
vn 0.125828 -0.934924 0.331790
vn 0.265606 -0.934924 0.235308
vn 0.265606 -0.934924 0.235307
vn 0.344536 -0.934924 0.084920
vn 0.344536 -0.934924 0.084920
vn 0.344536 -0.934924 -0.084920
vn 0.344536 -0.934924 -0.084920
vn 0.265607 -0.934924 -0.235307
vn 0.265607 -0.934924 -0.235307
vn 0.125827 -0.934924 -0.331790
vn 0.125828 -0.934924 -0.331790
vn -0.042776 -0.934922 -0.352265
vn -0.042776 -0.934922 -0.352265
vn -0.201578 -0.934922 -0.292040
vn -0.201578 -0.934922 -0.292039
vn -0.314203 -0.934923 -0.164909
vn -0.314203 -0.934923 -0.164909
vn -0.354849 -0.934924 -0.000000
vn -0.354849 -0.934924 -0.000000
vn 0.212055 0.927712 -0.307218
vn 0.488753 0.509648 -0.708081
vn 0.103709 0.509652 -0.854107
vn 0.044997 0.927712 -0.370575
vn 0.330534 0.927713 -0.173480
vn 0.761828 0.509653 -0.399840
vn 0.373292 0.927714 0.000000
vn 0.860379 0.509655 0.000001
vn -0.305093 0.509658 -0.804467
vn -0.132369 0.927713 -0.349037
vn -0.644005 0.509655 -0.570535
vn -0.279412 0.927715 -0.247537
vn -0.835378 0.509655 -0.205901
vn -0.362444 0.927715 -0.089333
vn -0.835378 0.509655 0.205902
vn -0.362444 0.927714 0.089334
vn -0.644003 0.509658 0.570534
vn -0.279412 0.927715 0.247537
vn -0.305092 0.509655 0.804469
vn -0.132368 0.927714 0.349036
vn 0.103710 0.509644 0.854112
vn 0.044998 0.927713 0.370573
vn 0.488753 0.509645 0.708083
vn 0.212055 0.927712 0.307218
vn 0.761828 0.509652 0.399841
vn 0.330534 0.927713 0.173480
vn 0.859728 0.239311 -0.451218
vn 0.551563 0.239307 -0.799068
vn 0.117033 0.239320 -0.963861
vn -0.344291 0.239329 -0.907847
vn -0.726756 0.239319 -0.643857
vn -0.942728 0.239316 -0.232361
vn -0.942728 0.239317 0.232362
vn -0.726756 0.239325 0.643854
vn -0.344304 0.239319 0.907844
vn 0.117036 0.239300 0.963866
vn 0.551564 0.239302 0.799069
vn 0.859727 0.239312 0.451219
vn 0.970942 0.239314 0.000001
vn 0.096448 0.985481 -0.139731
vn 0.150334 0.985482 -0.078904
vn 0.020466 0.985481 -0.168547
vn -0.060202 0.985482 -0.158749
vn -0.127080 0.985482 -0.112584
vn -0.164845 0.985482 -0.040630
vn -0.164845 0.985482 0.040631
vn -0.127081 0.985482 0.112584
vn -0.060203 0.985482 0.158748
vn 0.020467 0.985481 0.168545
vn 0.096448 0.985481 0.139730
vn 0.150334 0.985482 0.078903
vn 0.169781 0.985482 -0.000000
s 1
g pSphere8
usemtl initialShadingGroup
f 14/25/1 15/31/2 28/32/3 27/26/4
f 15/175/2 16/176/5 29/177/6 28/178/3
f 16/176/5 17/179/7 30/180/8 29/177/6
f 17/9/7 18/1/9 31/4/10 30/10/8
f 18/1/9 19/2/11 32/3/12 31/4/10
f 19/2/11 20/5/13 33/6/14 32/3/12
f 20/5/13 21/11/15 34/12/16 33/6/14
f 21/11/15 22/16/17 35/17/18 34/12/16
f 22/181/17 23/182/19 36/183/20 35/184/18
f 23/182/19 24/185/21 37/186/22 36/183/20
f 24/29/21 25/21/23 38/24/24 37/30/22
f 25/21/23 26/22/25 39/23/26 38/24/24
f 26/22/25 14/25/1 27/26/4 39/23/26
f 27/26/4 28/32/3 41/37/27 40/33/28
f 28/78/3 29/79/6 42/74/29 41/71/27
f 29/79/6 30/86/8 43/80/30 42/74/29
f 30/86/8 31/92/10 44/87/31 43/80/30
f 31/4/10 32/3/12 45/7/32 44/8/31
f 32/3/12 33/6/14 46/13/33 45/7/32
f 33/6/14 34/12/16 47/18/34 46/13/33
f 34/114/16 35/112/18 48/111/35 47/113/34
f 35/112/18 36/109/20 49/104/36 48/111/35
f 36/109/20 37/110/22 50/98/37 49/104/36
f 37/30/22 38/24/24 51/28/38 50/36/37
f 38/24/24 39/23/26 52/27/39 51/28/38
f 39/23/26 27/26/4 40/33/28 52/27/39
f 40/70/28 41/71/27 54/72/40 53/73/41
f 41/71/27 42/74/29 55/75/42 54/72/40
f 42/74/29 43/80/30 56/81/43 55/75/42
f 43/80/30 44/87/31 57/88/44 56/81/43
f 44/8/31 45/7/32 58/14/45 57/15/44
f 45/7/32 46/13/33 59/19/46 58/14/45
f 46/13/33 47/18/34 60/20/47 59/19/46
f 47/113/34 48/111/35 61/105/48 60/107/47
f 48/111/35 49/104/36 62/100/49 61/105/48
f 49/104/36 50/98/37 63/94/50 62/100/49
f 50/98/37 51/99/38 64/90/51 63/94/50
f 51/28/38 52/27/39 65/34/52 64/35/51
f 52/27/39 40/33/28 53/38/41 65/34/52
f 53/73/41 54/72/40 67/76/53 66/77/54
f 54/72/40 55/75/42 68/82/55 67/76/53
f 55/75/42 56/81/43 69/89/56 68/82/55
f 56/81/43 57/88/44 70/93/57 69/89/56
f 57/88/44 58/96/45 71/97/58 70/93/57
f 58/96/45 59/102/46 72/103/59 71/97/58
f 59/102/46 60/107/47 73/108/60 72/103/59
f 60/107/47 61/105/48 74/106/61 73/108/60
f 61/105/48 62/100/49 75/101/62 74/106/61
f 62/100/49 63/94/50 76/95/63 75/101/62
f 63/94/50 64/90/51 77/91/64 76/95/63
f 64/90/51 65/84/52 78/85/65 77/91/64
f 65/84/52 53/73/41 66/77/54 78/85/65
f 66/77/54 67/76/53 79/83/66
f 67/76/53 68/82/55 79/83/66
f 68/82/55 69/89/56 79/83/66
f 69/89/56 70/93/57 79/83/66
f 70/93/57 71/97/58 79/83/66
f 71/97/58 72/103/59 79/83/66
f 72/103/59 73/108/60 79/83/66
f 73/108/60 74/106/61 79/83/66
f 74/106/61 75/101/62 79/83/66
f 75/101/62 76/95/63 79/83/66
f 76/95/63 77/91/64 79/83/66
f 77/91/64 78/85/65 79/83/66
f 78/85/65 66/77/54 79/83/66
s 2
f 1/115/67 2/116/68 81/117/69 80/118/70
f 2/116/68 3/119/71 82/120/72 81/117/69
f 3/119/71 4/123/73 83/124/74 82/120/72
f 4/123/73 5/127/75 84/128/76 83/124/74
f 5/127/75 6/131/77 85/132/78 84/128/76
f 6/131/77 7/135/79 86/136/80 85/132/78
f 7/135/79 8/139/81 87/140/82 86/136/80
f 8/139/81 9/137/83 88/138/84 87/140/82
f 9/137/83 10/133/85 89/134/86 88/138/84
f 10/133/85 11/129/87 90/130/88 89/134/86
f 11/129/87 12/125/89 91/126/90 90/130/88
f 12/125/89 13/121/91 92/122/92 91/126/90
f 13/121/91 1/115/67 80/118/70 92/122/92
s 3
f 93/144/93 94/151/94 98/152/95 97/148/96
f 94/66/94 93/69/93 96/67/97 95/60/98
f 95/60/98 96/67/97 117/62/99 118/57/100
f 97/148/96 98/152/95 100/157/101 99/154/102
f 99/154/102 100/157/101 102/162/103 101/159/104
f 101/45/104 102/42/103 104/41/105 103/46/106
f 103/46/106 104/41/105 106/44/107 105/51/108
f 105/51/108 106/44/107 108/50/109 107/54/110
f 107/172/110 108/174/109 110/173/111 109/166/112
f 109/166/112 110/173/111 112/167/113 111/161/114
f 111/161/114 112/167/113 114/168/115 113/156/116
f 113/68/116 114/64/115 116/58/117 115/61/118
f 115/61/118 116/58/117 118/57/100 117/62/99
f 80/59/119 81/65/120 94/66/94 95/60/98
f 81/187/120 82/188/121 98/189/95 94/190/94
f 82/188/121 83/191/122 100/192/101 98/189/95
f 83/47/122 84/39/123 102/42/103 100/48/101
f 84/39/123 85/40/124 104/41/105 102/42/103
f 85/40/124 86/43/125 106/44/107 104/41/105
f 86/43/125 87/49/126 108/50/109 106/44/107
f 87/49/126 88/52/127 110/53/111 108/50/109
f 88/193/127 89/194/128 112/195/113 110/196/111
f 89/194/128 90/197/129 114/198/115 112/195/113
f 90/63/129 91/55/130 116/58/117 114/64/115
f 91/55/130 92/56/131 118/57/100 116/58/117
f 92/56/131 80/59/119 95/60/98 118/57/100
f 15/141/132 14/142/133 96/143/97 93/144/93
f 16/147/134 15/141/132 93/144/93 97/148/96
f 17/153/135 16/147/134 97/148/96 99/154/102
f 18/158/136 17/153/135 99/154/102 101/159/104
f 19/163/137 18/158/136 101/159/104 103/164/106
f 20/169/138 19/163/137 103/164/106 105/170/108
f 21/171/139 20/169/138 105/170/108 107/172/110
f 22/165/140 21/171/139 107/172/110 109/166/112
f 23/160/141 22/165/140 109/166/112 111/161/114
f 24/155/142 23/160/141 111/161/114 113/156/116
f 25/149/143 24/155/142 113/156/116 115/150/118
f 26/145/144 25/149/143 115/150/118 117/146/99
f 14/142/133 26/145/144 117/146/99 96/143/97
