# This file uses centimeters as units for non-parametric coordinates.

mtllib Garbage Container .mtl
g default
v 1.730894 -3.277973 -0.908433
v 1.110460 -3.277973 -1.608760
v 0.235632 -3.277973 -1.940543
v -0.693173 -3.277973 -1.827768
v -1.463178 -3.277973 -1.296269
v -1.897985 -3.277973 -0.467809
v -1.897985 -3.277973 0.467820
v -1.463178 -3.277973 1.296273
v -0.693173 -3.277973 1.827768
v 0.235632 -3.277973 1.940547
v 1.110459 -3.277973 1.608772
v 1.730894 -3.277973 0.908444
v 1.954806 -3.277973 0.000000
v 2.338996 3.277972 -1.232919
v 1.496951 3.277972 -2.183390
v 0.309650 3.277972 -2.633671
v -0.950909 3.277972 -2.480617
v -1.995949 3.277972 -1.759272
v -2.586063 3.277972 -0.634908
v -2.586066 3.277972 0.634912
v -1.995949 3.277972 1.759283
v -0.950911 3.277972 2.480617
v 0.309648 3.277972 2.633682
v 1.496949 3.277972 2.183394
v 2.338994 3.277972 1.232922
v 2.642884 3.277972 0.000000
v 0.000007 -3.277973 0.000000
v -1.962653 2.868226 1.730343
v -2.543059 2.868226 0.624468
v -2.543059 2.868226 -0.624464
v -1.962653 2.868226 -1.730339
v -0.934801 2.868226 -2.439812
v 0.305023 2.868226 -2.590353
v 1.472794 2.868226 -2.147477
v 2.300988 2.868226 -1.212636
v 2.599880 2.868226 0.000000
v 2.300988 2.868226 1.212639
v 1.472792 2.868226 2.147481
v 0.305023 2.868226 2.590353
v -0.934802 2.868226 2.439816
v -2.335053 2.814661 2.060261
v -3.026108 2.814493 0.743530
v -3.026108 2.814495 -0.743526
v -2.335053 2.814663 -2.060257
v -1.111236 2.814960 -2.905037
v 0.365007 2.815322 -3.084317
v 1.755485 2.815664 -2.557021
v 2.741646 2.815905 -1.443913
v 3.097550 2.815992 0.000011
v 2.741648 2.815904 1.443913
v 1.755484 2.815662 2.557025
v 0.365013 2.815322 3.084321
v -1.111240 2.814960 2.905037
v 1.309282 -2.675175 -0.683464
v 0.842495 -2.675175 -1.210358
v 0.012666 -2.675174 0.000004
v 0.184316 -2.675175 -1.459972
v -0.514474 -2.675175 -1.375126
v -1.093792 -2.675175 -0.975251
v -1.420922 -2.675175 -0.351957
v -1.420922 -2.675175 0.351968
v -1.093792 -2.675175 0.975262
v -0.514476 -2.675175 1.375130
v 0.184314 -2.675175 1.459983
v 0.842493 -2.675175 1.210369
v 1.309280 -2.675175 0.683471
v 1.477742 -2.675175 0.000004
v -2.210605 3.247098 1.949454
v -2.351712 3.019652 2.074746
v -3.047621 3.019466 0.748753
v -2.864475 3.247003 0.703534
v -3.047621 3.019481 -0.748749
v -2.864489 3.247003 -0.703530
v -2.351712 3.019653 -2.074735
v -2.210607 3.247098 -1.949443
v -1.119297 3.019943 -2.925447
v -1.052613 3.247269 -2.748773
v 0.367322 3.020288 -3.105987
v 0.344226 3.247478 -2.918396
v 1.767568 3.020607 -2.574985
v 1.659893 3.247675 -2.419447
v 2.760654 3.020824 -1.454055
v 2.592978 3.247816 -1.366219
v 3.119056 3.020894 0.000011
v 2.929716 3.247867 0.000000
v 2.760654 3.020799 1.454055
v 2.592956 3.247819 1.366212
v 1.767564 3.020559 2.574988
v 1.659865 3.247680 2.419421
v 0.367324 3.020230 3.105991
v 0.344219 3.247483 2.918351
v -1.119297 3.019891 2.925447
v -1.052593 3.247275 2.748732
vt 0.502933 0.562586
vt 0.502933 0.516002
vt 0.709027 0.524810
vt 0.709027 0.586993
vt 0.502933 0.463392
vt 0.709027 0.454584
vt 0.502933 0.592471
vt 0.709027 0.626886
vt 0.502933 0.416808
vt 0.709027 0.392401
vt 0.502933 0.386923
vt 0.709027 0.352508
vt 0.085976 0.526777
vt 0.085976 0.475696
vt 0.292070 0.475696
vt 0.292070 0.543882
vt 0.085976 0.424615
vt 0.292070 0.407510
vt 0.085976 0.566156
vt 0.292070 0.596448
vt 0.085976 0.385236
vt 0.292070 0.354945
vt 0.914269 0.335790
vt 0.914269 0.399012
vt 0.714648 0.414922
vt 0.714648 0.379875
vt 0.914269 0.470413
vt 0.714648 0.454503
vt 0.914269 0.295229
vt 0.714648 0.357390
vt 0.914269 0.533636
vt 0.714648 0.489551
vt 0.914269 0.574196
vt 0.714648 0.512035
vt 0.497312 0.408389
vt 0.497312 0.477716
vt 0.297691 0.477715
vt 0.297691 0.439284
vt 0.497312 0.547042
vt 0.297691 0.516146
vt 0.497312 0.354945
vt 0.297691 0.409657
vt 0.497312 0.600486
vt 0.297691 0.545773
vt 0.685820 0.124680
vt 0.685826 0.050641
vt 0.692700 0.049826
vt 0.692694 0.124386
vt 0.685836 0.003140
vt 0.692708 0.001992
vt 0.700327 0.056872
vt 0.700323 0.126929
vt 0.685821 0.208296
vt 0.692694 0.208590
vt 0.700323 0.206047
vt 0.685826 0.282335
vt 0.692700 0.283149
vt 0.700327 0.276104
vt 0.685836 0.329837
vt 0.692710 0.330985
vt 0.707257 0.146783
vt 0.707254 0.065592
vt 0.714125 0.065021
vt 0.714127 0.146783
vt 0.707246 0.003002
vt 0.714118 0.001992
vt 0.721737 0.069960
vt 0.721738 0.146782
vt 0.707254 0.227972
vt 0.714124 0.228543
vt 0.721737 0.223603
vt 0.707246 0.290562
vt 0.714116 0.291572
vt 0.170988 0.618760
vt 0.205875 0.658139
vt 0.108548 0.709220
vt 0.218465 0.709220
vt 0.121797 0.600104
vt 0.205875 0.760301
vt 0.069571 0.606446
vt 0.170988 0.799680
vt 0.026274 0.636331
vt 0.121797 0.818336
vt 0.001825 0.682915
vt 0.069571 0.811994
vt 0.001825 0.735525
vt 0.026274 0.782109
vt 0.904796 0.954345
vt 0.878549 0.983972
vt 0.831888 0.915914
vt 0.841540 0.998008
vt 0.914269 0.915914
vt 0.802248 0.993237
vt 0.904796 0.877483
vt 0.769673 0.970752
vt 0.878549 0.847856
vt 0.751278 0.935705
vt 0.841540 0.833821
vt 0.751278 0.896124
vt 0.802247 0.838592
vt 0.769673 0.861076
vt 0.361254 0.210535
vt 0.393890 0.272718
vt 0.372950 0.291269
vt 0.334092 0.217230
vt 0.451685 0.312611
vt 0.441764 0.338770
vt 0.361254 0.140308
vt 0.334092 0.133613
vt 0.521400 0.321076
vt 0.524773 0.348851
vt 0.393890 0.078125
vt 0.372950 0.059574
vt 0.587063 0.296173
vt 0.602958 0.319202
vt 0.451685 0.038232
vt 0.441764 0.012073
vt 0.633632 0.243607
vt 0.658410 0.256612
vt 0.521400 0.029767
vt 0.524773 0.001992
vt 0.650438 0.175421
vt 0.678422 0.175422
vt 0.587063 0.054670
vt 0.602958 0.031642
vt 0.633632 0.107236
vt 0.658410 0.094231
vt 0.038592 0.067023
vt 0.030658 0.059978
vt 0.099956 0.012144
vt 0.103707 0.022081
vt 0.183548 0.001992
vt 0.182249 0.012543
vt 0.109424 0.037156
vt 0.050662 0.077717
vt 0.262283 0.031850
vt 0.256227 0.040597
vt 0.180305 0.028550
vt 0.017480 0.140939
vt 0.001826 0.137081
vt 0.318124 0.094879
vt 0.308694 0.099819
vt 0.247066 0.053869
vt 0.017481 0.212341
vt 0.001825 0.216199
vt 0.294414 0.107314
vt 0.050662 0.275563
vt 0.038592 0.286256
vt 0.311501 0.176640
vt 0.327630 0.176640
vt 0.109424 0.316124
vt 0.103706 0.331202
vt 0.294414 0.245967
vt 0.308695 0.253462
vt 0.180305 0.324730
vt 0.182249 0.340740
vt 0.030658 0.293301
vt 0.099956 0.341136
vt 0.247066 0.299411
vt 0.256228 0.312684
vt 0.183548 0.351288
vt 0.262283 0.321430
vt 0.318124 0.258401
vt 0.340185 0.810237
vt 0.290994 0.810237
vt 0.294896 0.604143
vt 0.360559 0.604143
vt 0.238768 0.810237
vt 0.225181 0.604143
vt 0.379816 0.630543
vt 0.432043 0.630543
vt 0.435944 0.836638
vt 0.366230 0.836638
vt 0.481234 0.630543
vt 0.501607 0.836638
vt 0.644920 0.830164
vt 0.578159 0.830164
vt 0.571111 0.630543
vt 0.608120 0.630543
vt 0.507278 0.830164
vt 0.531819 0.630543
vt 0.651897 0.630543
vt 0.722778 0.630543
vt 0.715730 0.830164
vt 0.676438 0.830164
vt 0.789539 0.630543
vt 0.752739 0.830164
vt 0.745646 0.912686
vt 0.745658 0.995694
vt 0.738784 0.996147
vt 0.738773 0.912556
vt 0.745634 0.834500
vt 0.738762 0.833820
vt 0.726260 0.912685
vt 0.726271 0.834500
vt 0.733142 0.833821
vt 0.733131 0.912555
vt 0.726248 0.995694
vt 0.733119 0.996147
vn 0.880652 -0.104556 -0.462083
vn 0.565079 -0.105039 -0.818323
vn 0.564763 -0.105039 -0.818541
vn 0.880551 -0.104556 -0.462275
vn 0.120089 -0.105720 -0.987118
vn 0.119629 -0.105720 -0.987174
vn -0.352389 -0.106442 -0.929781
vn -0.352797 -0.106443 -0.929626
vn -0.744110 -0.107042 -0.659426
vn -0.744315 -0.107042 -0.659194
vn -0.965315 -0.107380 -0.237984
vn -0.965342 -0.107380 -0.237876
vn -0.965315 -0.107380 0.237985
vn -0.965342 -0.107380 0.237876
vn -0.744109 -0.107042 0.659427
vn -0.744314 -0.107042 0.659195
vn -0.352389 -0.106442 0.929781
vn -0.352796 -0.106443 0.929626
vn 0.120086 -0.105719 0.987118
vn 0.119627 -0.105720 0.987174
vn 0.565077 -0.105038 0.818324
vn 0.564761 -0.105039 0.818542
vn 0.880652 -0.104555 0.462082
vn 0.880552 -0.104556 0.462274
vn 0.994537 -0.104381 -0.000000
vn 0.994537 -0.104381 0.000000
vn 0.000000 -1.000000 0.000000
vn 0.000000 -1.000000 -0.000000
vn 0.000000 -1.000000 0.000000
vn 0.000000 -1.000000 0.000000
vn 0.000000 -1.000000 -0.000000
vn 0.000000 -1.000000 -0.000000
vn 0.000000 -1.000000 0.000000
vn 0.000000 -1.000000 0.000000
vn 0.000000 -1.000000 0.000000
vn 0.000000 -1.000000 0.000000
vn 0.000000 -1.000000 -0.000000
vn 0.000000 -1.000000 -0.000000
vn 0.000000 -1.000000 0.000000
vn 0.000000 -1.000000 0.000000
vn 0.000000 1.000000 -0.000000
vn 0.000000 1.000000 -0.000000
vn 0.000000 1.000000 0.000000
vn 0.000000 1.000000 -0.000000
vn -0.000000 1.000000 -0.000000
vn -0.000000 1.000000 -0.000000
vn -0.000000 1.000000 -0.000000
vn -0.000000 1.000000 0.000000
vn -0.000000 1.000000 0.000000
vn -0.000000 1.000000 0.000000
vn 0.000000 1.000000 0.000000
vn 0.000000 1.000000 0.000000
vn 0.000000 1.000000 0.000000
vn 0.000000 1.000000 0.000000
vn 0.104196 -0.994226 -0.025630
vn 0.080172 -0.994261 -0.070838
vn 0.080172 -0.994261 -0.070838
vn 0.104196 -0.994227 -0.025631
vn 0.104194 -0.994227 0.025629
vn 0.104194 -0.994227 0.025629
vn 0.080170 -0.994261 0.070837
vn 0.080170 -0.994261 0.070837
vn 0.037921 -0.994322 0.099431
vn 0.037921 -0.994322 0.099431
vn -0.012534 -0.994395 0.104987
vn -0.012534 -0.994395 0.104987
vn -0.059550 -0.994463 0.086583
vn -0.059550 -0.994463 0.086583
vn -0.092597 -0.994512 0.048710
vn -0.092597 -0.994512 0.048710
vn -0.104463 -0.994529 0.000000
vn -0.104463 -0.994529 -0.000001
vn -0.092598 -0.994511 -0.048712
vn -0.092598 -0.994511 -0.048712
vn -0.059552 -0.994463 -0.086585
vn -0.059552 -0.994463 -0.086585
vn -0.012534 -0.994395 -0.104988
vn -0.012535 -0.994395 -0.104987
vn 0.037922 -0.994322 -0.099432
vn 0.037922 -0.994322 -0.099432
vn -0.868820 0.192387 0.456222
vn -0.557060 0.193253 0.807674
vn -0.557634 0.193252 0.807278
vn -0.869004 0.192387 0.455873
vn -0.117807 0.194473 0.973808
vn -0.118642 0.194470 0.973707
vn 0.348125 0.195766 0.916780
vn 0.347384 0.195764 0.917061
vn 0.734059 0.196837 0.649932
vn 0.733687 0.196836 0.650353
vn 0.951853 0.197441 0.234504
vn 0.951805 0.197441 0.234701
vn 0.951854 0.197441 -0.234503
vn 0.951805 0.197441 -0.234700
vn 0.734058 0.196837 -0.649934
vn 0.733686 0.196836 -0.650354
vn 0.348125 0.195765 -0.916780
vn 0.347385 0.195763 -0.917061
vn -0.117804 0.194472 -0.973808
vn -0.118639 0.194470 -0.973707
vn -0.557062 0.193252 -0.807673
vn -0.557636 0.193251 -0.807277
vn -0.868821 0.192387 -0.456222
vn -0.869004 0.192386 -0.455873
vn -0.981380 0.192075 -0.000001
vn -0.981380 0.192075 -0.000001
vn -0.576167 0.638539 0.510196
vn -0.576068 0.638539 0.510308
vn -0.272800 0.638991 0.719216
vn -0.272994 0.638990 0.719142
vn -0.747458 0.638274 0.184155
vn -0.747445 0.638274 0.184207
vn -0.747459 0.638275 -0.184147
vn -0.747446 0.638275 -0.184201
vn -0.576181 0.638536 -0.510184
vn -0.576081 0.638536 -0.510296
vn -0.273020 0.638996 -0.719127
vn -0.272822 0.638996 -0.719202
vn 0.092380 0.639547 -0.763181
vn 0.092601 0.639547 -0.763154
vn 0.436269 0.640060 -0.632449
vn 0.436420 0.640061 -0.632345
vn 0.679997 0.640418 -0.357028
vn 0.680045 0.640418 -0.356935
vn 0.767918 0.640548 0.000008
vn 0.767918 0.640548 0.000017
vn 0.679986 0.640417 0.357050
vn 0.680036 0.640417 0.356955
vn 0.436261 0.640052 0.632463
vn 0.436413 0.640052 0.632358
vn 0.092376 0.639538 0.763189
vn 0.092600 0.639538 0.763162
vn -0.965316 -0.107382 0.237979
vn -0.744135 -0.107057 0.659395
vn -0.744303 -0.107057 0.659205
vn -0.965339 -0.107382 0.237887
vn -0.965316 -0.107376 -0.237983
vn -0.965338 -0.107376 -0.237892
vn -0.744126 -0.107040 -0.659408
vn -0.744298 -0.107040 -0.659213
vn -0.352424 -0.106439 -0.929768
vn -0.352772 -0.106439 -0.929636
vn 0.120039 -0.105718 -0.987124
vn 0.119653 -0.105718 -0.987171
vn 0.565041 -0.105041 -0.818349
vn 0.564773 -0.105041 -0.818534
vn 0.880639 -0.104558 -0.462106
vn 0.880554 -0.104558 -0.462269
vn 0.994537 -0.104385 -0.000008
vn 0.994537 -0.104385 -0.000010
vn 0.880644 -0.104562 0.462097
vn 0.880559 -0.104562 0.462258
vn 0.565051 -0.105055 0.818340
vn 0.564782 -0.105055 0.818526
vn 0.120042 -0.105741 0.987121
vn 0.119650 -0.105742 0.987169
vn -0.352440 -0.106464 0.929759
vn -0.352787 -0.106464 0.929627
vn -0.080146 0.994261 0.070861
vn -0.104189 0.994227 0.025641
vn -0.104189 0.994227 0.025641
vn -0.080146 0.994261 0.070861
vn -0.104187 0.994227 -0.025641
vn -0.104187 0.994227 -0.025641
vn -0.080144 0.994261 -0.070861
vn -0.080144 0.994261 -0.070861
vn -0.037876 0.994322 -0.099448
vn -0.037877 0.994322 -0.099448
vn 0.012585 0.994394 -0.104983
vn 0.012586 0.994394 -0.104983
vn 0.059587 0.994463 -0.086562
vn 0.059587 0.994463 -0.086562
vn 0.092610 0.994511 -0.048691
vn 0.092610 0.994511 -0.048691
vn 0.104465 0.994529 -0.000001
vn 0.104465 0.994529 -0.000001
vn 0.092610 0.994511 0.048690
vn 0.092610 0.994511 0.048690
vn 0.059587 0.994463 0.086561
vn 0.059587 0.994463 0.086561
vn 0.012585 0.994394 0.104983
vn 0.012586 0.994394 0.104983
vn -0.037877 0.994322 0.099448
vn -0.037878 0.994322 0.099448
s 1
g pCylinder14
usemtl initialShadingGroup
f 1/17/1 2/21/2 34/22/3 35/18/4
f 2/164/2 3/165/5 33/166/6 34/167/3
f 3/165/5 4/168/7 32/169/8 33/166/6
f 4/7/7 5/1/9 31/4/10 32/8/8
f 5/1/9 6/2/11 30/3/12 31/4/10
f 6/2/11 7/5/13 29/6/14 30/3/12
f 29/6/14 7/5/13 8/9/15 28/10/16
f 8/9/15 9/11/17 40/12/18 28/10/16
f 9/170/17 10/171/19 39/172/20 40/173/18
f 10/171/19 11/174/21 38/175/22 39/172/20
f 11/19/21 12/13/23 37/16/24 38/20/22
f 12/13/23 13/14/25 36/15/26 37/16/24
f 13/14/25 1/17/1 35/18/4 36/15/26
s 2
f 2/74/27 1/75/28 27/76/29
f 3/78/30 2/74/27 27/76/29
f 4/80/31 3/78/30 27/76/29
f 5/82/32 4/80/31 27/76/29
f 6/84/33 5/82/32 27/76/29
f 7/86/34 6/84/33 27/76/29
f 8/87/35 7/86/34 27/76/29
f 9/85/36 8/87/35 27/76/29
f 10/83/37 9/85/36 27/76/29
f 11/81/38 10/83/37 27/76/29
f 12/79/39 11/81/38 27/76/29
f 13/77/40 12/79/39 27/76/29
f 1/75/28 13/77/40 27/76/29
s 3
f 54/88/41 55/89/42 56/90/43
f 55/89/42 57/91/44 56/90/43
f 57/91/44 58/93/45 56/90/43
f 58/93/45 59/95/46 56/90/43
f 59/95/46 60/97/47 56/90/43
f 60/97/47 61/99/48 56/90/43
f 61/99/48 62/101/49 56/90/43
f 62/101/49 63/100/50 56/90/43
f 63/100/50 64/98/51 56/90/43
f 64/98/51 65/96/52 56/90/43
f 65/96/52 66/94/53 56/90/43
f 66/94/53 67/92/54 56/90/43
f 67/92/54 54/88/41 56/90/43
s 4
f 29/102/55 28/103/56 41/104/57 42/105/58
f 30/108/59 29/102/55 42/105/58 43/109/60
f 31/112/61 30/108/59 43/109/60 44/113/62
f 32/116/63 31/112/61 44/113/62 45/117/64
f 33/120/65 32/116/63 45/117/64 46/121/66
f 34/124/67 33/120/65 46/121/66 47/125/68
f 35/126/69 34/124/67 47/125/68 48/127/70
f 36/122/71 35/126/69 48/127/70 49/123/72
f 37/118/73 36/122/71 49/123/72 50/119/74
f 38/114/75 37/118/73 50/119/74 51/115/76
f 39/110/77 38/114/75 51/115/76 52/111/78
f 40/106/79 39/110/77 52/111/78 53/107/80
f 28/103/56 40/106/79 53/107/80 41/104/57
s 5
f 14/39/81 15/43/82 55/44/83 54/40/84
f 15/176/82 16/177/85 57/178/86 55/179/83
f 16/177/85 17/180/87 58/181/88 57/178/86
f 17/29/87 18/23/89 59/26/90 58/30/88
f 18/23/89 19/24/91 60/25/92 59/26/90
f 19/24/91 20/27/93 61/28/94 60/25/92
f 20/27/93 21/31/95 62/32/96 61/28/94
f 21/31/95 22/33/97 63/34/98 62/32/96
f 22/182/97 23/183/99 64/184/100 63/185/98
f 23/183/99 24/186/101 65/187/102 64/184/100
f 24/41/101 25/35/103 66/38/104 65/42/102
f 25/35/103 26/36/105 67/37/106 66/38/104
f 26/36/105 14/39/81 54/40/84 67/37/106
s 6
f 68/128/107 69/129/108 92/130/109 93/131/110
f 69/47/108 68/51/107 71/52/111 70/48/112
f 70/48/112 71/52/111 73/55/113 72/54/114
f 72/54/114 73/55/113 75/58/115 74/57/116
f 74/157/116 75/148/115 77/152/117 76/158/118
f 76/158/118 77/152/117 79/156/119 78/161/120
f 78/161/120 79/156/119 81/160/121 80/162/122
f 80/162/122 81/160/121 83/154/123 82/163/124
f 82/63/124 83/67/123 85/68/125 84/64/126
f 84/64/126 85/68/125 87/71/127 86/70/128
f 86/141/128 87/142/127 89/137/129 88/136/130
f 88/136/130 89/137/129 91/133/131 90/132/132
f 90/132/132 91/133/131 93/131/110 92/130/109
s 7
f 42/45/133 41/46/134 69/47/135 70/48/136
f 43/53/137 42/45/133 70/48/136 72/54/138
f 44/56/139 43/53/137 72/54/138 74/57/140
f 45/59/141 44/56/139 74/57/140 76/60/142
f 46/188/143 45/189/141 76/190/142 78/191/144
f 47/192/145 46/188/143 78/191/144 80/193/146
f 48/62/147 47/65/145 80/66/146 82/63/148
f 49/61/149 48/62/147 82/63/148 84/64/150
f 50/69/151 49/61/149 84/64/150 86/70/152
f 51/72/153 50/69/151 86/70/152 88/73/154
f 52/194/155 51/195/153 88/196/154 90/197/156
f 53/198/157 52/194/155 90/197/156 92/199/158
f 41/46/134 53/49/157 92/50/158 69/47/135
s 8
f 21/135/159 20/139/160 71/140/161 68/128/162
f 20/139/160 19/144/163 73/145/164 71/140/161
f 19/144/163 18/147/165 75/148/166 73/145/164
f 18/147/165 17/151/167 77/152/168 75/148/166
f 17/151/167 16/155/169 79/156/170 77/152/168
f 16/155/169 15/159/171 81/160/172 79/156/170
f 15/159/171 14/153/173 83/154/174 81/160/172
f 14/153/173 26/149/175 85/150/176 83/154/174
f 26/149/175 25/146/177 87/142/178 85/150/176
f 25/146/177 24/143/179 89/137/180 87/142/178
f 24/143/179 23/138/181 91/133/182 89/137/180
f 23/138/181 22/134/183 93/131/184 91/133/182
f 22/134/183 21/135/159 68/128/162 93/131/184
