# This file uses centimeters as units for non-parametric coordinates.

mtllib E-Waste and Donate Container .mtl
g default
v 1.379894 -0.498340 -1.346550
v -0.062199 -0.498340 0.281234
v 1.971180 -0.498340 -0.489924
v 0.458241 -0.498340 -1.830271
v 2.096645 -0.498340 0.543365
v -0.582638 -0.498340 -1.830272
v 1.727543 -0.498340 1.516604
v 3.779484 -6.214070 -3.702427
v 3.779484 -6.214070 -2.776821
v 2.834614 -6.214070 -2.776821
v 2.834614 -6.214070 -3.702427
v -1.504292 -0.498340 -1.346551
v 0.948433 -0.498340 2.206834
v 3.779484 -4.345075 -3.702427
v 3.779484 -4.345075 -2.776821
v 2.834614 -4.345075 -3.702427
v -2.095577 -0.498340 -0.489925
v -0.062199 -0.498340 2.455932
v -2.221043 -0.498340 0.543365
v -1.072830 -0.498340 2.206833
v -1.851940 -0.498340 1.516603
v 2.834614 -4.345075 -2.776821
v 3.779484 -4.345075 2.776821
v 2.834614 -4.345075 2.776821
v -2.834614 -4.345075 -3.702427
v -2.834614 -4.345075 -2.776821
v 3.779484 5.179171 -3.702427
v 3.779484 5.179170 -2.776821
v 2.834614 5.179171 -3.702427
v 3.779484 -6.214070 2.776821
v 3.779484 -6.214070 3.702427
v 2.834614 -6.214070 3.702427
v 2.834614 -6.214070 2.776821
v -2.834614 -6.214070 -3.702427
v -2.834614 -6.214070 -2.776821
v -3.779484 -6.214070 -2.776821
v -3.779484 -6.214070 -3.702427
v 3.779484 -4.345075 3.702427
v -3.779484 -4.345075 -3.702427
v 2.834614 -4.345075 3.702427
v -3.779484 -4.345075 -2.776821
v -2.834614 -4.345075 2.776821
v 3.779484 3.758438 2.776821
v -2.834614 5.179171 -3.702427
v 3.779484 6.214070 -3.702425
v 3.779484 6.214069 -2.776819
v 2.834614 6.214070 -3.702425
v -2.834614 -4.345075 3.702427
v -3.779484 -4.345075 2.776821
v 3.779484 3.584017 3.702427
v 2.834614 5.179170 -2.776821
v 2.834614 6.214069 -2.776819
v 2.834614 3.584017 3.702427
v -3.779484 5.179171 -3.702427
v -3.779484 -6.214070 2.776821
v -2.834614 -6.214070 2.776821
v -2.834614 -6.214070 3.702427
v -3.779484 -6.214070 3.702427
v 1.971180 4.594136 -0.489924
v 1.379894 4.813278 -1.346550
v 0.458241 4.937024 -1.830271
v 2.096645 4.329800 0.543365
v -3.779484 5.179170 -2.776821
v 2.834614 3.758438 2.776821
v -0.582638 4.937024 -1.830272
v -3.779484 -4.345075 3.702427
v 1.727543 4.080826 1.516604
v -2.834614 6.214070 -3.702425
v -1.504292 4.813278 -1.346551
v -2.834614 5.179170 -2.776821
v -2.834614 6.214069 -2.776819
v 0.948433 3.904252 2.206834
v -2.834614 3.584017 3.702427
v -3.779484 3.758438 2.776821
v -2.095577 4.594136 -0.489925
v -0.062199 3.840528 2.455932
v -2.221043 4.329801 0.543365
v -3.779484 6.214070 -3.702425
v -1.072830 3.904252 2.206833
v -1.851940 4.080827 1.516603
v -3.779484 6.214069 -2.776819
v -3.779484 3.584017 3.702427
v -2.834614 3.758438 2.776821
vt 0.035127 0.069483
vt 0.000000 0.069483
vt 0.000000 0.000000
vt 0.035127 0.000000
vt 0.035127 0.423561
vt 0.000000 0.423561
vt 0.035127 0.462035
vt 0.000000 0.462035
vt 0.245889 0.423561
vt 0.245889 0.069483
vt 0.245889 0.462035
vt 0.281016 0.423561
vt 0.281016 0.069483
vt 0.281016 0.462035
vt 0.245889 0.000000
vt 0.281016 0.000000
vt 0.071104 0.069483
vt 0.035977 0.069483
vt 0.035977 0.000000
vt 0.071104 0.000000
vt 0.477649 0.069483
vt 0.442522 0.069483
vt 0.442522 0.000000
vt 0.477649 0.000000
vt 0.755919 0.462035
vt 0.720792 0.462035
vt 0.720792 0.392553
vt 0.755919 0.392553
vt 0.755919 0.756812
vt 0.720792 0.756812
vt 0.510029 0.756812
vt 0.510029 0.462035
vt 0.474902 0.756812
vt 0.474902 0.462035
vt 0.474902 0.392553
vt 0.510029 0.392553
vt 0.513627 0.069483
vt 0.478500 0.069483
vt 0.478500 0.000000
vt 0.513627 0.000000
vt 0.759124 0.697883
vt 0.759124 0.662756
vt 0.797598 0.662756
vt 0.797598 0.697883
vt 0.759124 0.908646
vt 0.797598 0.908646
vt 0.759124 0.943773
vt 0.797598 0.943773
vt 0.967480 0.197468
vt 0.933216 0.202068
vt 0.933216 0.000000
vt 0.967480 0.000000
vt 0.894520 0.202068
vt 0.894520 0.000000
vt 0.989462 0.189321
vt 0.989462 0.000000
vt 0.860256 0.197468
vt 0.860256 0.000000
vt 0.838274 0.189321
vt 0.838274 0.000000
vt 0.549604 0.069483
vt 0.514477 0.069483
vt 0.514477 0.000000
vt 0.549604 0.000000
vt 0.904811 0.363372
vt 0.867239 0.365741
vt 0.867239 0.202068
vt 0.904811 0.202068
vt 0.838274 0.372306
vt 0.838274 0.202068
vt 0.942382 0.365741
vt 0.942382 0.202068
vt 0.971347 0.372306
vt 0.971347 0.202068
vt 0.330987 0.548679
vt 0.391502 0.495067
vt 0.362833 0.570661
vt 0.313004 0.514415
vt 0.401247 0.575325
vt 0.313004 0.475718
vt 0.437429 0.561603
vt 0.330987 0.441455
vt 0.463089 0.532638
vt 0.362833 0.419473
vt 0.472350 0.495067
vt 0.401247 0.414808
vt 0.463089 0.457495
vt 0.437429 0.428530
vt 0.107932 0.000000
vt 0.142343 0.000000
vt 0.142343 0.035127
vt 0.107932 0.035127
vt 0.240876 0.462035
vt 0.240876 0.497162
vt 0.034411 0.497162
vt 0.034411 0.462035
vt 0.034411 0.707925
vt 0.240876 0.707925
vt 0.000000 0.707925
vt 0.000000 0.497162
vt 0.275287 0.497162
vt 0.275287 0.707925
vt 0.240876 0.743052
vt 0.034411 0.743052
vt 0.071955 0.000000
vt 0.106366 0.000000
vt 0.106366 0.035127
vt 0.071955 0.035127
vt 0.143910 0.000000
vt 0.178321 0.000000
vt 0.178321 0.035127
vt 0.143910 0.035127
vt 0.798699 0.908646
vt 0.833110 0.908646
vt 0.833110 0.943773
vt 0.798699 0.943773
vt 0.798699 0.697883
vt 0.833110 0.697883
vt 0.798699 0.662756
vt 0.833110 0.662756
vt 0.179887 0.035127
vt 0.179887 0.000000
vt 0.214298 0.000000
vt 0.214298 0.035127
vt 0.965589 0.627629
vt 0.965589 0.662756
vt 0.759124 0.662756
vt 0.759124 0.627629
vt 1.000000 0.627629
vt 1.000000 0.662756
vt 0.882557 0.600194
vt 1.000000 0.416867
vt 0.965589 0.416867
vt 0.844143 0.595530
vt 0.918739 0.586472
vt 0.953660 0.519936
vt 0.965589 0.381740
vt 1.000000 0.381740
vt 0.812296 0.573548
vt 0.944399 0.557508
vt 0.944399 0.482364
vt 0.759124 0.416867
vt 0.759124 0.381740
vt 0.794313 0.539284
vt 0.918738 0.453399
vt 0.844143 0.444342
vt 0.794313 0.500588
vt 0.882557 0.439678
vt 0.812296 0.466324
vt 0.284222 0.392552
vt 0.318633 0.392552
vt 0.318633 0.462035
vt 0.284222 0.462035
vt 0.284222 0.038474
vt 0.318633 0.038474
vt 0.284222 0.000000
vt 0.318633 0.000000
vt 0.525098 0.091292
vt 0.525098 0.392552
vt 0.559509 0.097776
vt 0.559509 0.392552
vt 0.559509 0.462035
vt 0.525098 0.462035
vt 0.851099 0.532766
vt 0.816688 0.532766
vt 0.816688 0.463283
vt 0.851099 0.463283
vt 0.852665 0.512788
vt 0.887076 0.512788
vt 0.887076 0.582271
vt 0.852665 0.582271
vt 0.923054 0.529505
vt 0.888643 0.529505
vt 0.888643 0.460023
vt 0.923054 0.460023
vt 0.595659 0.069483
vt 0.561248 0.069483
vt 0.561248 0.000000
vt 0.595659 0.000000
vt 0.595659 0.423561
vt 0.561248 0.423561
vt 0.802124 0.069483
vt 0.802124 0.370743
vt 0.595659 0.462035
vt 0.561248 0.462035
vt 0.836535 0.364259
vt 0.836535 0.069483
vt 0.802124 0.000000
vt 0.836535 0.000000
vt 0.852665 0.443305
vt 0.887076 0.443305
vt 0.887076 0.512788
vt 0.852665 0.512788
vt 0.315440 0.743066
vt 0.277026 0.752893
vt 0.277026 0.563573
vt 0.315440 0.563573
vt 0.351622 0.733810
vt 0.351622 0.563573
vt 0.352579 0.568880
vt 0.390993 0.578707
vt 0.390993 0.758201
vt 0.352579 0.758201
vt 0.427175 0.587963
vt 0.427175 0.758201
vn 0.000000 1.000000 0.000000
vn 0.000000 1.000000 0.000000
vn 0.000000 1.000000 -0.000000
vn 0.000000 1.000000 0.000000
vn 0.000000 1.000000 -0.000000
vn 0.000000 1.000000 0.000000
vn 0.000000 1.000000 0.000000
vn 0.000000 -1.000000 0.000000
vn 0.000000 -1.000000 0.000000
vn 0.000000 -1.000000 0.000000
vn 0.000000 -1.000000 0.000000
vn 0.000000 1.000000 0.000000
vn 0.000000 1.000000 0.000000
vn 1.000000 0.000000 0.000000
vn 1.000000 0.000000 0.000000
vn 1.000000 0.000000 0.000000
vn 1.000000 0.000000 0.000000
vn 0.000000 0.000000 -1.000000
vn 0.000000 0.000000 -1.000000
vn 0.000000 0.000000 -1.000000
vn 0.000000 0.000000 -1.000000
vn 0.000000 1.000000 -0.000000
vn 0.000000 1.000000 0.000000
vn 0.000000 1.000000 -0.000000
vn 0.000000 1.000000 0.000000
vn 0.000000 1.000000 0.000000
vn 0.000000 0.000000 1.000000
vn 0.000000 0.000000 1.000000
vn 0.000000 0.000000 1.000000
vn 0.000000 0.000000 1.000000
vn -1.000000 0.000000 0.000000
vn -1.000000 0.000000 0.000000
vn -1.000000 0.000000 0.000000
vn -1.000000 0.000000 0.000000
vn 0.000000 -1.000000 0.000000
vn 0.000000 -1.000000 0.000000
vn 0.000000 -1.000000 0.000000
vn 0.000000 -1.000000 0.000000
vn 0.000000 -1.000000 0.000000
vn 0.000000 -1.000000 0.000000
vn 0.000000 -1.000000 0.000000
vn 1.000000 0.000000 0.000000
vn 1.000000 0.000000 0.000000
vn 0.000000 0.000000 -1.000000
vn 0.000000 0.000000 -1.000000
vn 0.000000 -1.000000 0.000000
vn 0.000000 -1.000000 0.000000
vn 0.000000 -1.000000 0.000000
vn 0.000000 -1.000000 0.000000
vn 0.000000 -1.000000 0.000000
vn 0.000000 -1.000000 0.000000
vn 0.000000 -1.000000 0.000000
vn 0.000000 -1.000000 0.000000
vn 1.000000 0.000000 0.000000
vn 1.000000 0.000000 0.000000
vn 1.000000 0.000000 0.000000
vn 1.000000 0.000000 0.000000
vn 0.000000 0.000000 -1.000000
vn 0.000000 0.000000 -1.000000
vn 0.000000 0.000000 -1.000000
vn 0.000000 0.000000 -1.000000
vn 1.000000 0.000000 0.000000
vn 1.000000 0.000000 0.000000
vn 1.000000 0.000000 0.000000
vn 1.000000 0.000000 0.000000
vn 0.000000 0.000000 -1.000000
vn 0.000000 0.000000 -1.000000
vn 0.000000 0.000000 -1.000000
vn 0.000000 0.000000 -1.000000
vn 0.000000 0.000000 1.000000
vn 0.000000 0.000000 1.000000
vn 0.000000 0.000000 1.000000
vn 0.000000 0.000000 1.000000
vn -1.000000 0.000000 0.000000
vn -1.000000 0.000000 0.000000
vn -1.000000 0.000000 0.000000
vn -1.000000 0.000000 0.000000
vn 0.000000 0.000000 1.000000
vn 0.000000 0.000000 1.000000
vn 0.000000 0.000000 1.000000
vn 0.000000 0.000000 1.000000
vn -1.000000 0.000000 0.000000
vn -1.000000 0.000000 0.000000
vn -1.000000 0.000000 0.000000
vn -1.000000 0.000000 0.000000
vn 0.000000 -1.000000 0.000000
vn 1.000000 0.000000 0.000000
vn 0.000000 0.000000 -1.000000
vn 1.000000 0.000000 0.000000
vn 1.000000 0.000000 0.000000
vn 0.000000 0.000002 -1.000000
vn 0.000000 0.000002 -1.000000
vn 0.000000 -1.000000 0.000000
vn 0.000000 -1.000000 0.000000
vn 0.000000 -1.000000 0.000000
vn 0.000000 -1.000000 0.000000
vn 1.000000 0.000000 0.000000
vn 0.000000 -0.000002 1.000000
vn 0.000000 -0.000002 1.000000
vn 0.000000 -0.000002 1.000000
vn 0.000000 -0.000002 1.000000
vn 0.000000 1.000000 0.000001
vn 0.000000 1.000000 0.000001
vn 0.000000 1.000000 0.000001
vn 0.000000 1.000000 0.000001
vn 0.000000 0.000000 1.000000
vn 0.000000 0.000000 1.000000
vn 0.000000 0.000000 -1.000000
vn 0.000000 -1.000000 0.000000
vn 0.000000 -1.000000 0.000000
vn 0.000000 -1.000000 0.000000
vn 0.000000 -1.000000 0.000000
vn -0.919319 0.000000 0.393514
vn -0.640184 0.000000 0.768222
vn -0.660126 0.000000 0.751154
vn -0.932921 0.000000 0.360081
vn -0.228568 0.000000 0.973528
vn -0.237946 0.000000 0.971278
vn 1.000000 0.000000 0.000000
vn 1.000000 0.000000 0.000000
vn 1.000000 0.000000 0.000000
vn 1.000000 0.000000 0.000000
vn 0.000000 0.000000 -1.000000
vn 0.000000 0.000000 -1.000000
vn 0.000000 0.000000 -1.000000
vn 0.000000 0.000000 -1.000000
vn -0.997058 0.000000 -0.076652
vn -0.993477 0.000000 -0.114036
vn -1.000000 -0.000000 0.000000
vn -1.000000 -0.000000 0.000000
vn -0.000000 0.976113 0.217262
vn 0.000000 0.971006 0.239056
vn 0.000000 0.968801 0.247839
vn 0.000000 0.968801 0.247839
vn 0.228567 0.000000 0.973528
vn 0.237945 0.000000 0.971279
vn 0.000000 0.000000 1.000000
vn 0.000000 0.000000 1.000000
vn 0.000000 0.000000 1.000000
vn 0.000000 0.000000 1.000000
vn -1.000000 0.000000 0.000000
vn -1.000000 0.000000 0.000000
vn -1.000000 0.000000 0.000000
vn -1.000000 0.000000 0.000000
vn -0.843180 0.000000 -0.537632
vn -0.826210 0.000000 -0.563363
vn 0.000000 0.000002 -1.000000
vn 0.640184 0.000000 0.768221
vn 0.660127 0.000000 0.751154
vn 0.000000 -0.000002 1.000000
vn 0.000000 -0.000002 1.000000
vn 0.000000 1.000000 0.000001
vn 0.000000 1.000000 0.000001
vn -0.482958 0.000000 -0.875643
vn -0.467679 0.000000 -0.883898
vn 0.000000 0.000000 1.000000
vn 0.000000 0.000000 1.000000
vn 0.000000 0.000000 1.000000
vn 0.000000 0.982705 0.185181
vn 0.000000 0.982705 0.185181
vn -1.000000 0.000000 0.000000
vn 0.919319 0.000000 0.393514
vn 0.932921 0.000000 0.360081
vn 0.000000 0.000000 -1.000000
vn 0.000000 0.000000 -1.000000
vn 0.997058 0.000000 -0.076653
vn 0.993477 0.000000 -0.114036
vn 0.000000 0.000002 -1.000000
vn 0.482959 0.000000 -0.875643
vn 0.467680 0.000000 -0.883898
vn 0.843180 0.000000 -0.537632
vn 0.826210 0.000000 -0.563362
vn 0.000000 -0.000002 1.000000
vn 0.000000 -0.000002 1.000000
vn -1.000000 -0.000000 0.000000
vn -1.000000 -0.000000 0.000000
vn 0.000000 1.000000 0.000001
vn 0.000000 1.000000 0.000001
vn 0.000000 0.000000 1.000000
vn -1.000000 0.000000 0.000000
vn 0.000000 0.982705 0.185181
vn -0.000000 0.976184 0.216946
vn 0.000000 0.971006 0.239056
vn 0.000000 0.968801 0.247839
vn 0.000000 0.968801 0.247839
vn 0.000000 0.982705 0.185181
vn 0.000000 0.968801 0.247839
vn 0.000000 0.968801 0.247839
vn 0.000000 0.968801 0.247839
vn 0.000000 0.968801 0.247839
vn 0.000000 0.968801 0.247839
vn -0.000000 0.968801 0.247838
vn -0.000000 0.968801 0.247839
vn -0.000002 0.968801 0.247838
vn -0.000000 0.968801 0.247839
vn -0.000000 0.968801 0.247839
vn 0.000000 0.968801 0.247839
vn -0.000000 0.968801 0.247839
vn 0.000000 0.968801 0.247839
s 1
g pCube54
usemtl initialShadingGroup
f 1/75/1 2/76/2 3/77/3
f 4/78/4 2/76/2 1/75/1
f 3/77/3 2/76/2 5/79/5
f 6/80/6 2/76/2 4/78/4
f 5/79/5 2/76/2 7/81/7
s off
f 8/89/8 9/90/9 10/91/10 11/92/11
s 1
f 12/82/12 2/76/2 6/80/6
f 7/81/7 2/76/2 13/83/13
s 2
f 14/150/14 15/151/15 9/152/16 8/153/17
s 3
f 16/1/18 14/2/19 8/3/20 11/4/21
s 1
f 17/84/22 2/76/2 12/82/12
f 13/83/13 2/76/2 18/85/23
f 19/86/24 2/76/2 17/84/22
f 18/85/23 2/76/2 20/87/25
f 21/88/26 2/76/2 19/86/24
s off
f 15/17/27 22/18/28 10/19/29 9/20/30
f 22/164/31 16/165/32 11/166/33 10/167/34
s 1
f 20/87/25 2/76/2 21/88/26
s 4
f 23/93/35 24/94/36 22/95/37 15/96/38
f 25/99/39 16/100/40 22/95/37 26/97/41
s 2
f 14/150/14 27/154/42 28/155/43 15/151/15
s 3
f 29/5/44 27/6/45 14/2/19 16/1/18
s off
f 30/105/46 31/106/47 32/107/48 33/108/49
f 34/109/50 35/110/51 36/111/52 37/112/53
s 2
f 23/159/54 38/161/55 31/162/56 30/163/57
s off
f 24/21/58 23/22/59 30/23/60 33/24/61
f 25/168/62 26/169/63 35/170/64 34/171/65
s 3
f 39/13/66 25/10/67 34/15/68 37/16/69
s 7
f 38/25/70 40/26/71 32/27/72 31/28/73
s off
f 40/172/74 24/173/75 33/174/76 32/175/77
f 26/37/78 41/38/79 36/39/80 35/40/81
s 8
f 41/176/82 39/177/83 37/178/84 36/179/85
s 4
f 26/97/41 22/95/37 24/94/36 42/98/86
s 2
f 28/155/43 43/158/87 23/159/54 15/151/15
s 3
f 44/9/88 29/5/44 16/1/18 25/10/67
s 2
f 28/155/43 27/154/42 45/156/89 46/157/90
s 3
f 27/6/45 29/5/44 47/7/91 45/8/92
s 4
f 42/98/86 24/94/36 40/101/93 48/102/94
f 26/97/41 42/98/86 49/103/95 41/104/96
s 2
f 43/158/87 50/160/97 38/161/55 23/159/54
s 9
f 51/41/98 28/42/99 46/43/100 52/44/101
s 10
f 47/113/102 52/114/103 46/115/104 45/116/105
s 7
f 38/25/70 50/29/106 53/30/107 40/26/71
s 3
f 54/12/108 44/9/88 25/10/67 39/13/66
s off
f 55/121/109 56/122/110 57/123/111 58/124/112
s 11
f 59/55/113 60/49/114 1/52/115 3/56/116
f 60/49/114 61/50/117 4/51/118 1/52/115
s off
f 42/190/119 48/191/120 57/192/121 56/193/122
f 49/61/123 42/62/124 56/63/125 55/64/126
s 11
f 62/194/127 59/195/113 3/196/116 5/197/128
s 8
f 41/176/82 63/180/129 54/181/130 39/177/83
s 12
f 64/125/131 43/126/132 28/127/133 51/128/134
s 11
f 61/50/117 65/53/135 6/54/136 4/51/118
s 13
f 48/32/137 66/34/138 58/35/139 57/36/140
s 8
f 66/187/141 49/182/142 55/188/143 58/189/144
s 11
f 67/198/145 62/194/127 5/197/128 7/199/146
s 3
f 29/5/44 44/9/88 68/11/147 47/7/91
s 11
f 65/53/135 69/57/148 12/58/149 6/54/136
s 9
f 70/45/150 51/41/98 52/44/101 71/46/151
s 10
f 52/114/103 47/113/102 68/117/152 71/118/153
s 11
f 72/66/154 67/69/145 7/70/146 13/67/155
s 13
f 40/26/156 53/30/157 73/31/158 48/32/137
s 12
f 43/126/132 64/125/131 53/129/159 50/130/160
s 8
f 49/182/142 74/183/161 63/180/129 41/176/82
s 11
f 69/57/148 75/59/162 17/60/163 12/58/149
f 76/65/164 72/66/154 13/67/155 18/68/165
f 75/200/162 77/201/166 19/202/167 17/203/163
s 3
f 44/9/88 54/12/108 78/14/168 68/11/147
s 11
f 79/71/169 76/65/164 18/68/165 20/72/170
f 77/201/166 80/204/171 21/205/172 19/202/167
f 80/73/171 79/71/169 20/72/170 21/74/172
s 9
f 63/47/173 70/45/150 71/46/151 81/48/174
s 8
f 54/181/130 63/180/129 81/184/175 78/185/176
s 10
f 78/119/177 81/120/178 71/118/153 68/117/152
s 13
f 48/32/137 73/31/158 82/33/179 66/34/138
s 8
f 82/186/180 74/183/161 49/182/142 66/187/141
s 12
f 73/132/181 53/129/159 64/125/131 83/133/182
f 74/137/183 83/133/182 70/142/184 63/143/185
f 83/133/182 74/137/183 82/138/186 73/132/181
f 64/125/131 51/128/134 62/131/187
f 62/131/187 51/128/134 59/134/188
f 75/146/189 69/149/190 70/142/184
f 59/134/188 51/128/134 60/139/191
f 69/149/190 65/147/192 70/142/184
f 70/142/184 65/147/192 51/128/134
f 65/147/192 61/144/193 51/128/134
f 61/144/193 60/139/191 51/128/134
f 70/142/184 83/133/182 75/146/189
f 75/146/189 83/133/182 77/148/194
f 77/148/194 83/133/182 80/145/195
f 62/131/187 67/135/196 64/125/131
f 80/145/195 83/133/182 79/141/197
f 67/135/196 72/140/198 64/125/131
f 79/141/197 83/133/182 76/136/199
f 83/133/182 64/125/131 76/136/199
f 64/125/131 72/140/198 76/136/199
