# This file uses centimeters as units for non-parametric coordinates.

mtllib Recycling Bin .mtl
g default
v -2.117902 -2.230410 2.323497
v 2.117902 -2.230410 2.323497
v -2.451337 2.230410 2.689298
v 2.451337 2.230410 2.689298
v -2.451337 2.230410 -2.689306
v 2.451337 2.230410 -2.689306
v -2.117902 -2.230410 -2.323503
v 2.117902 -2.230410 -2.323503
v -2.451337 1.851667 2.689298
v -2.451337 1.851667 -2.689306
v 2.451337 1.851667 -2.689306
v 2.451337 1.851667 2.689298
v -2.121622 2.230410 2.327570
v 2.121622 2.230410 2.327570
v 2.121622 2.230410 -2.327588
v -2.121622 2.230410 -2.327588
v -1.969739 -1.626522 2.160946
v 1.969743 -1.626522 2.160946
v 1.969743 -1.626522 -2.160961
v -1.969739 -1.626522 -2.160961
v -2.751337 1.851667 2.989298
v -2.751337 1.851667 -2.989308
v -2.751337 2.230410 2.989298
v -2.751337 2.230410 -2.989308
v 2.751337 2.230410 -2.989308
v 2.751337 1.851667 -2.989308
v 2.751337 1.851667 2.989298
v 2.751337 2.230410 2.989298
v -2.751337 1.851667 -0.000005
v -2.451337 1.851667 -0.000005
v -2.117902 -2.230410 -0.000005
v 2.117902 -2.230410 -0.000005
v 2.451337 1.851667 -0.000005
v 2.751337 1.851667 -0.000005
v 2.751337 2.230410 -0.000005
v 2.451337 2.230410 -0.000005
v 2.121622 2.230410 -0.000008
v 1.969743 -1.626522 -0.000008
v -1.969739 -1.626522 -0.000008
v -2.121622 2.230410 -0.000008
v -2.451337 2.230410 -0.000005
v -2.751337 2.230410 -0.000005
v -2.751337 1.851667 1.494648
v -2.451337 1.851667 1.344645
v -2.117902 -2.230410 1.161747
v 2.117902 -2.230410 1.161747
v 2.451337 1.851667 1.344645
v 2.751337 1.851667 1.494648
v 2.751337 2.230410 1.494648
v 2.451337 2.230410 1.344645
v 2.121622 2.230410 1.163779
v 1.969743 -1.626522 1.080466
v -1.969739 -1.626522 1.080466
v -2.121622 2.230410 1.163779
v -2.451337 2.230410 1.344645
v -2.751337 2.230410 1.494648
v -2.751337 1.851667 -1.494655
v -2.451337 1.851667 -1.344655
v -2.117902 -2.230410 -1.161752
v 2.117902 -2.230410 -1.161752
v 2.451337 1.851667 -1.344655
v 2.751337 1.851667 -1.494655
v 2.751337 2.230410 -1.494655
v 2.451337 2.230410 -1.344655
v 2.121622 2.230410 -1.163799
v 1.969743 -1.626522 -1.080487
v -1.969739 -1.626522 -1.080487
v -2.121622 2.230410 -1.163799
v -2.451337 2.230410 -1.344655
v -2.751337 2.230410 -1.494655
v -2.201260 -1.209890 -0.000005
v -2.201260 -1.209890 1.207474
v -2.201260 -1.209890 2.414945
v 2.201263 -1.209890 2.414945
v 2.201263 -1.209890 1.207474
v 2.201263 -1.209890 -0.000005
v 2.201263 -1.209890 -1.207479
v 2.201263 -1.209890 -2.414953
v -2.201260 -1.209890 -2.414953
v -2.201260 -1.209890 -1.207479
v -2.367979 0.831148 -0.000005
v -2.367979 0.831148 1.298924
v -2.367979 0.831148 2.597845
v 2.367979 0.831148 2.597845
v 2.367979 0.831148 1.298924
v 2.367979 0.831148 -0.000005
v 2.367979 0.831148 -1.298929
v 2.367979 0.831148 -2.597855
v -2.367979 0.831148 -2.597855
v -2.367979 0.831148 -1.298929
v -2.268310 0.839289 1.298924
v -2.101592 -1.201749 1.207474
v -2.268310 0.839289 -0.000005
v -2.101592 -1.201749 -0.000005
v -2.268310 0.839289 -1.298929
v -2.101592 -1.201749 -1.207479
v 2.268310 0.839289 1.298924
v 2.268310 0.839289 -0.000005
v 2.101594 -1.201749 1.207474
v 2.101594 -1.201749 -0.000005
v 2.268310 0.839289 -1.298929
v 2.101594 -1.201749 -1.207479
vt 0.710646 0.523498
vt 0.710646 0.464124
vt 0.766892 0.466214
vt 0.766892 0.527678
vt 0.598156 0.515138
vt 0.598156 0.459944
vt 0.710646 0.404750
vt 0.766892 0.404750
vt 0.541911 0.510957
vt 0.541911 0.457854
vt 0.710646 0.345377
vt 0.766892 0.343287
vt 0.598156 0.404750
vt 0.541911 0.404750
vt 0.710646 0.286003
vt 0.766892 0.281823
vt 0.598156 0.349557
vt 0.541911 0.351647
vt 0.598156 0.294363
vt 0.541911 0.298544
vt 0.479530 0.345377
vt 0.479530 0.286003
vt 0.535775 0.281823
vt 0.535775 0.343287
vt 0.367039 0.349557
vt 0.367039 0.294363
vt 0.479530 0.404751
vt 0.535775 0.404751
vt 0.310794 0.351647
vt 0.310794 0.298543
vt 0.479530 0.464124
vt 0.535775 0.466214
vt 0.310794 0.404751
vt 0.367039 0.404751
vt 0.479530 0.523498
vt 0.535775 0.527678
vt 0.310794 0.457854
vt 0.367039 0.459944
vt 0.367039 0.515138
vt 0.310794 0.510957
vt 0.638930 0.070208
vt 0.618056 0.070208
vt 0.618056 0.001888
vt 0.638930 0.001888
vt 0.638930 0.138528
vt 0.618056 0.138528
vt 0.638930 0.206849
vt 0.618056 0.206849
vt 0.618056 0.275169
vt 0.638930 0.275169
vt 0.645341 0.275169
vt 0.645341 0.206849
vt 0.666215 0.206849
vt 0.666215 0.275169
vt 0.645341 0.138528
vt 0.666215 0.138528
vt 0.645341 0.070208
vt 0.666215 0.070208
vt 0.645341 0.001888
vt 0.666215 0.001888
vt 0.214564 0.498601
vt 0.214564 0.551798
vt 0.001992 0.555606
vt 0.001992 0.506217
vt 0.214564 0.604994
vt 0.001992 0.604994
vt 0.214564 0.658191
vt 0.001992 0.654383
vt 0.214564 0.711388
vt 0.001992 0.703771
vt 0.655222 0.691260
vt 0.655222 0.744456
vt 0.442650 0.736840
vt 0.442650 0.687451
vt 0.655222 0.638063
vt 0.442650 0.638063
vt 0.655222 0.584866
vt 0.442650 0.588675
vt 0.655222 0.531670
vt 0.442650 0.539286
vt 0.681828 0.752255
vt 0.794319 0.748075
vt 0.794319 0.807449
vt 0.681828 0.807449
vt 0.794319 0.866823
vt 0.681828 0.862642
vt 0.675693 0.807822
vt 0.675693 0.867196
vt 0.563202 0.863015
vt 0.563202 0.807822
vt 0.675693 0.748448
vt 0.563202 0.752628
vt 0.800454 0.945629
vt 0.800454 0.748075
vt 0.849843 0.748075
vt 0.849843 0.945629
vt 0.899231 0.748075
vt 0.899231 0.945629
vt 0.948620 0.748075
vt 0.948620 0.945629
vt 0.998008 0.748075
vt 0.998008 0.945629
vt 0.662882 0.690980
vt 0.875295 0.690980
vt 0.875295 0.744084
vt 0.662882 0.744084
vt 0.662882 0.637877
vt 0.875295 0.637877
vt 0.662882 0.584773
vt 0.875295 0.584773
vt 0.662882 0.531670
vt 0.875295 0.531670
vt 0.070471 0.262787
vt 0.070471 0.016932
vt 0.087005 0.033466
vt 0.087005 0.246253
vt 0.056758 0.277831
vt 0.056758 0.001888
vt 0.131935 0.016932
vt 0.140202 0.033466
vt 0.131935 0.262787
vt 0.140202 0.246253
vt 0.125078 0.277831
vt 0.125078 0.001888
vt 0.193398 0.016932
vt 0.193398 0.033466
vt 0.193398 0.262787
vt 0.193398 0.246253
vt 0.193398 0.277831
vt 0.193398 0.001888
vt 0.254862 0.016932
vt 0.246595 0.033466
vt 0.254862 0.262787
vt 0.246595 0.246253
vt 0.261719 0.277831
vt 0.261719 0.001888
vt 0.316326 0.016932
vt 0.299792 0.033466
vt 0.316326 0.262787
vt 0.299792 0.246253
vt 0.330039 0.277831
vt 0.330039 0.001888
vt 0.535511 0.262787
vt 0.596975 0.262787
vt 0.610688 0.277831
vt 0.542368 0.277831
vt 0.596975 0.016932
vt 0.610688 0.001887
vt 0.474048 0.262787
vt 0.474048 0.277831
vt 0.535511 0.016932
vt 0.542368 0.001887
vt 0.412584 0.262787
vt 0.405727 0.277831
vt 0.474048 0.016932
vt 0.474048 0.001887
vt 0.351120 0.262787
vt 0.337407 0.277831
vt 0.412584 0.016932
vt 0.405727 0.001887
vt 0.351120 0.016932
vt 0.337407 0.001887
vt 0.552069 0.867195
vt 0.552069 0.807822
vt 0.557067 0.807822
vt 0.557067 0.867195
vt 0.552069 0.748448
vt 0.557067 0.748448
vt 0.451827 0.803642
vt 0.451827 0.748448
vt 0.456825 0.748448
vt 0.456825 0.803642
vt 0.451827 0.858835
vt 0.456825 0.858835
vt 0.545934 0.807822
vt 0.545934 0.867195
vt 0.540935 0.867195
vt 0.540935 0.807822
vt 0.545934 0.748448
vt 0.540935 0.748448
vt 0.445691 0.748448
vt 0.445691 0.803642
vt 0.440693 0.803642
vt 0.440693 0.748448
vt 0.445691 0.858835
vt 0.440693 0.858835
vt 0.841362 0.243563
vt 0.841362 0.006068
vt 0.897608 0.001888
vt 0.897608 0.247743
vt 0.728872 0.235202
vt 0.728872 0.014428
vt 0.672626 0.231022
vt 0.672626 0.018608
vt 0.773027 0.497590
vt 0.773027 0.251734
vt 0.829272 0.255914
vt 0.829272 0.493409
vt 0.941763 0.485049
vt 0.941763 0.264275
vt 0.998008 0.268455
vt 0.998008 0.480869
vt 0.001992 0.277831
vt 0.001992 0.001888
vt 0.022866 0.001888
vt 0.022866 0.277831
vt 0.029472 0.277831
vt 0.029472 0.001888
vt 0.050346 0.001888
vt 0.050346 0.277831
vt 0.092087 0.494609
vt 0.092087 0.281823
vt 0.304659 0.289439
vt 0.304659 0.486993
vt 0.434991 0.531670
vt 0.434991 0.744456
vt 0.222419 0.736840
vt 0.222419 0.539286
vt 0.529802 0.861387
vt 0.521442 0.748897
vt 0.526440 0.748448
vt 0.534800 0.860939
vt 0.501948 0.860938
vt 0.510308 0.748448
vt 0.515306 0.748897
vt 0.506946 0.861387
vt 0.495812 0.748897
vt 0.487452 0.861387
vt 0.482454 0.860939
vt 0.490814 0.748448
vt 0.467958 0.748448
vt 0.476319 0.860938
vt 0.471320 0.861387
vt 0.462960 0.748897
vn 0.000000 -0.089255 0.996009
vn 0.000000 -0.089255 0.996009
vn 0.000000 -0.089256 0.996009
vn 0.000000 -0.089256 0.996009
vn 0.000000 1.000000 0.000000
vn 0.000000 1.000000 0.000000
vn 0.000000 1.000000 0.000000
vn 0.000000 1.000000 0.000000
vn 0.000000 -0.089254 -0.996009
vn 0.000000 -0.089254 -0.996009
vn 0.000000 -0.089255 -0.996009
vn 0.000000 -0.089255 -0.996009
vn 0.000000 -1.000000 0.000000
vn 0.000000 -1.000000 0.000000
vn 0.000000 -1.000000 0.000000
vn 0.000000 -1.000000 0.000000
vn 0.996681 -0.081411 0.000000
vn 0.996681 -0.081411 0.000000
vn 0.996681 -0.081411 0.000000
vn 0.996681 -0.081411 0.000000
vn -0.996681 -0.081412 0.000000
vn -0.996681 -0.081412 0.000000
vn -0.996681 -0.081411 0.000000
vn -0.996681 -0.081411 0.000000
vn -1.000000 0.000000 0.000000
vn -1.000000 0.000000 0.000000
vn -1.000000 0.000000 0.000000
vn -1.000000 0.000000 0.000000
vn 0.000000 0.000000 -1.000000
vn 0.000000 0.000000 -1.000000
vn 0.000000 0.000000 -1.000000
vn 0.000000 0.000000 -1.000000
vn 1.000000 0.000000 0.000000
vn 1.000000 0.000000 0.000000
vn 1.000000 0.000000 0.000000
vn 1.000000 0.000000 0.000000
vn 0.000000 0.000000 1.000000
vn 0.000000 0.000000 1.000000
vn 0.000000 0.000000 1.000000
vn 0.000000 0.000000 1.000000
vn 0.000000 1.000000 -0.000000
vn 0.000000 1.000000 -0.000000
vn 0.000000 1.000000 -0.000000
vn 0.000000 1.000000 -0.000000
vn 0.000000 1.000000 0.000000
vn 0.000000 1.000000 0.000000
vn 0.000000 1.000000 0.000000
vn 0.000000 1.000000 0.000000
vn 0.000000 1.000000 0.000000
vn 0.000000 1.000000 0.000000
vn 0.000000 1.000000 0.000000
vn 0.000000 1.000000 0.000000
vn 0.000000 0.043161 -0.999068
vn 0.000000 0.043161 -0.999068
vn 0.000000 0.043161 -0.999068
vn 0.000000 0.043161 -0.999068
vn -0.999226 0.039348 0.000000
vn -0.999226 0.039348 0.000000
vn -0.999226 0.039348 0.000000
vn -0.999226 0.039348 0.000000
vn 0.000000 0.043162 0.999068
vn 0.000000 0.043162 0.999068
vn 0.000000 0.043162 0.999068
vn 0.000000 0.043162 0.999068
vn 0.999226 0.039349 0.000000
vn 0.999226 0.039349 0.000000
vn 0.999226 0.039349 0.000000
vn 0.999226 0.039349 0.000000
vn 0.000000 -1.000000 0.000000
vn 0.000000 -1.000000 -0.000000
vn 0.000000 -1.000000 -0.000000
vn 0.000000 -1.000000 0.000000
vn 0.000000 1.000000 0.000000
vn 0.000000 1.000000 0.000000
vn 0.000000 1.000000 -0.000000
vn 0.000000 1.000000 -0.000000
vn 0.000000 -1.000000 0.000000
vn 0.000000 -1.000000 0.000000
vn 0.000000 -1.000000 0.000000
vn 0.000000 -1.000000 0.000000
vn 0.000000 -1.000000 -0.000000
vn 0.000000 -1.000000 0.000000
vn 0.000000 -1.000000 0.000000
vn 0.000000 -1.000000 -0.000000
vn 0.000000 1.000000 0.000000
vn 0.000000 1.000000 0.000000
vn 0.000000 -1.000000 0.000000
vn 0.000000 -1.000000 0.000000
vn 0.000000 -1.000000 0.000000
vn 0.000000 -1.000000 0.000000
vn -0.996681 -0.081411 0.000000
vn -0.996681 -0.081411 0.000000
vn -0.996681 -0.081411 0.000000
vn -0.996681 -0.081411 0.000000
vn 0.000000 -1.000000 0.000000
vn 0.000000 -1.000000 0.000000
vn 0.000000 -1.000000 0.000000
vn 0.000000 -1.000000 0.000000
vn 0.996681 -0.081411 0.000000
vn 0.996681 -0.081411 0.000000
vn 0.996681 -0.081411 0.000000
vn 0.996681 -0.081411 0.000000
vn 0.000000 -1.000000 0.000000
vn 0.000000 -1.000000 0.000000
vn 0.000000 -1.000000 0.000000
vn 0.000000 -1.000000 0.000000
vn 1.000000 0.000000 0.000000
vn 1.000000 0.000000 0.000000
vn 1.000000 0.000000 0.000000
vn 1.000000 0.000000 0.000000
vn 0.000000 1.000000 0.000000
vn 0.000000 1.000000 0.000000
vn 0.000000 1.000000 0.000000
vn 0.000000 1.000000 0.000000
vn 0.000000 1.000000 0.000000
vn 0.000000 1.000000 0.000000
vn -0.999226 0.039348 0.000000
vn -0.999226 0.039348 0.000000
vn -0.999226 0.039348 0.000000
vn -0.999226 0.039348 0.000000
vn 0.000000 1.000000 0.000000
vn 0.000000 1.000000 0.000000
vn 0.000000 1.000000 0.000000
vn 0.000000 1.000000 0.000000
vn 0.999226 0.039349 0.000000
vn 0.999226 0.039349 0.000000
vn 0.999226 0.039349 0.000000
vn 0.999226 0.039349 0.000000
vn 0.000000 1.000000 0.000000
vn 0.000000 1.000000 0.000000
vn 0.000000 1.000000 0.000000
vn 0.000000 1.000000 0.000000
vn 0.000000 1.000000 0.000000
vn 0.000000 1.000000 0.000000
vn -1.000000 0.000000 0.000000
vn -1.000000 0.000000 0.000000
vn -1.000000 0.000000 0.000000
vn -1.000000 0.000000 0.000000
vn -0.996681 -0.081412 0.000000
vn -0.996681 -0.081411 0.000000
vn 0.000000 -1.000000 0.000000
vn 0.000000 -1.000000 0.000000
vn 0.996681 -0.081411 0.000000
vn 0.996681 -0.081411 0.000000
vn 1.000000 0.000000 0.000000
vn 1.000000 0.000000 0.000000
vn -0.999226 0.039348 0.000000
vn -0.999226 0.039348 0.000000
vn 0.000000 1.000000 0.000000
vn 0.000000 1.000000 0.000000
vn 0.999226 0.039349 0.000000
vn 0.999226 0.039349 0.000000
vn -1.000000 0.000000 0.000000
vn -1.000000 0.000000 0.000000
vn -0.996681 -0.081411 0.000000
vn -0.996681 -0.081411 0.000000
vn -0.996681 -0.081412 0.000000
vn -0.996681 -0.081411 0.000000
vn -0.996681 -0.081411 0.000000
vn -0.996681 -0.081412 0.000000
vn 0.000000 -0.089251 0.996009
vn 0.000000 -0.089251 0.996009
vn 0.000000 -0.089253 0.996009
vn 0.000000 -0.089253 0.996009
vn 0.996680 -0.081413 0.000000
vn 0.996680 -0.081413 0.000000
vn 0.996681 -0.081412 0.000000
vn 0.996681 -0.081412 0.000000
vn 0.996680 -0.081413 0.000000
vn 0.996680 -0.081413 0.000000
vn 0.996681 -0.081412 0.000000
vn 0.996680 -0.081413 0.000000
vn 0.996681 -0.081412 0.000000
vn 0.996680 -0.081413 0.000000
vn 0.000000 -0.089255 -0.996009
vn 0.000000 -0.089255 -0.996009
vn 0.000000 -0.089254 -0.996009
vn 0.000000 -0.089254 -0.996009
vn -0.996681 -0.081411 0.000000
vn -0.996681 -0.081411 0.000000
vn -0.996681 -0.081411 0.000000
vn -0.996681 -0.081412 0.000000
vn -0.996681 -0.081412 -0.000000
vn -0.996681 -0.081412 -0.000000
vn -0.996681 -0.081412 -0.000000
vn -0.996681 -0.081412 -0.000000
vn 0.996681 -0.081411 0.000000
vn 0.996681 -0.081411 0.000000
vn 0.996681 -0.081411 0.000000
vn 0.996681 -0.081411 0.000000
vn 0.996681 -0.081411 0.000000
vn 0.996681 -0.081411 0.000000
vn -0.996681 -0.081412 0.000000
vn -0.996681 -0.081412 0.000000
vn -0.003632 0.044464 -0.999004
vn -0.003632 0.044464 -0.999004
vn -0.003632 0.044464 -0.999004
vn -0.003632 0.044464 -0.999004
vn 0.081411 -0.996681 0.000000
vn 0.081411 -0.996681 0.000000
vn 0.081411 -0.996681 0.000000
vn 0.081411 -0.996681 0.000000
vn -0.081411 0.996681 0.000000
vn -0.081411 0.996681 0.000000
vn -0.081411 0.996681 0.000000
vn -0.081411 0.996681 0.000000
vn 0.081411 -0.996681 0.000000
vn 0.081411 -0.996681 0.000000
vn -0.003633 0.044464 0.999004
vn -0.003633 0.044464 0.999004
vn -0.003633 0.044464 0.999004
vn -0.003633 0.044464 0.999004
vn -0.081411 0.996681 0.000000
vn -0.081411 0.996681 0.000000
vn -0.081411 -0.996681 0.000000
vn -0.081411 -0.996681 0.000000
vn -0.081411 -0.996681 0.000000
vn -0.081411 -0.996681 0.000000
vn 0.003632 0.044464 -0.999004
vn 0.003632 0.044464 -0.999004
vn 0.003632 0.044464 -0.999004
vn 0.003632 0.044464 -0.999004
vn 0.081411 0.996681 0.000000
vn 0.081411 0.996681 0.000000
vn 0.081411 0.996681 0.000000
vn 0.081411 0.996681 0.000000
vn -0.081411 -0.996681 0.000000
vn -0.081411 -0.996681 0.000000
vn 0.081411 0.996681 0.000000
vn 0.081411 0.996681 0.000000
vn 0.003632 0.044464 0.999004
vn 0.003632 0.044464 0.999004
vn 0.003632 0.044464 0.999004
vn 0.003632 0.044464 0.999004
s 1
g pCube27
usemtl initialShadingGroup
f 83/187/1 84/188/2 12/189/3 9/190/4
s 2
f 17/93/5 18/94/6 52/95/7 53/96/8
s 3
f 10/195/9 11/196/10 88/197/11 89/198/12
s 4
f 45/103/13 46/104/14 2/105/15 1/106/16
s 5
f 84/1/17 85/2/18 47/3/19 12/4/20
s 6
f 82/21/21 83/22/22 9/23/23 44/24/24
s 7
f 56/41/25 43/42/26 21/43/27 23/44/28
s off
f 24/203/29 25/204/30 26/205/31 22/206/32
s 8
f 27/51/33 48/52/34 49/53/35 28/54/36
s off
f 21/207/37 27/208/38 28/209/39 23/210/40
s 9
f 3/113/41 4/114/42 14/115/43 13/116/44
f 4/114/42 50/119/45 51/120/46 14/115/43
f 6/137/47 5/139/48 16/140/49 15/138/50
f 55/121/51 3/113/41 13/116/44 54/122/52
s off
f 13/211/53 14/212/54 18/213/55 17/214/56
s 11
f 14/61/57 51/62/58 52/63/59 18/64/60
s off
f 15/215/61 16/216/62 20/217/63 19/218/64
s 12
f 54/71/65 13/72/66 17/73/67 53/74/68
s 13
f 44/143/69 9/144/70 21/145/71 43/146/72
s 9
f 3/113/41 55/121/51 56/123/73 23/117/74
f 5/139/48 6/137/47 25/142/75 24/141/76
s 13
f 11/161/77 10/157/78 22/158/79 26/162/80
f 12/147/81 47/151/82 48/152/83 27/148/84
s 9
f 50/119/45 4/114/42 28/118/85 49/124/86
s 13
f 9/144/70 12/147/81 27/148/84 21/145/71
s 9
f 4/114/42 3/113/41 23/117/74 28/118/85
s 13
f 58/153/87 30/149/88 29/150/89 57/154/90
s 6
f 90/31/91 81/27/92 30/28/93 58/32/94
s 4
f 59/109/95 60/110/96 32/108/97 31/107/98
s 5
f 33/8/99 86/7/100 87/11/101 61/12/102
s 13
f 34/156/103 33/155/104 61/159/105 62/160/106
s 8
f 35/56/107 34/55/108 62/57/109 63/58/110
s 9
f 64/131/111 36/125/112 35/130/113 63/136/114
f 37/126/115 36/125/112 64/131/111 65/132/116
s 11
f 38/66/117 37/65/118 65/67/119 66/68/120
s 2
f 39/98/121 38/97/122 66/99/123 67/100/124
s 12
f 68/77/125 40/75/126 39/76/127 67/78/128
s 9
f 69/133/129 41/127/130 40/128/131 68/134/132
f 42/129/133 41/127/130 69/133/129 70/135/134
s 7
f 70/47/135 57/48/136 29/46/137 42/45/138
s 13
f 30/149/88 44/143/69 43/146/72 29/150/89
s 6
f 81/27/92 82/21/21 44/24/24 30/28/93
s 4
f 31/107/98 32/108/97 46/104/14 45/103/13
s 5
f 47/3/19 85/2/18 86/7/100 33/8/99
s 13
f 48/152/83 47/151/82 33/155/104 34/156/103
s 8
f 49/53/35 48/52/34 34/55/108 35/56/107
s 9
f 36/125/112 50/119/45 49/124/86 35/130/113
f 51/120/46 50/119/45 36/125/112 37/126/115
s 11
f 52/63/59 51/62/58 37/65/118 38/66/117
s 2
f 53/96/8 52/95/7 38/97/122 39/98/121
s 12
f 40/75/126 54/71/65 53/74/68 39/76/127
s 9
f 41/127/130 55/121/51 54/122/52 40/128/131
f 56/123/73 55/121/51 41/127/130 42/129/133
s 7
f 42/45/138 29/46/137 43/42/26 56/41/25
s 13
f 10/157/78 58/153/87 57/154/90 22/158/79
s 6
f 89/35/139 90/31/91 58/32/94 10/36/140
s 4
f 7/111/141 8/112/142 60/110/96 59/109/95
s 5
f 61/12/102 87/11/101 88/15/143 11/16/144
s 13
f 62/160/106 61/159/105 11/161/77 26/162/80
s 8
f 63/58/110 62/57/109 26/59/145 25/60/146
s 9
f 6/137/47 64/131/111 63/136/114 25/142/75
f 65/132/116 64/131/111 6/137/47 15/138/50
s 11
f 66/68/120 65/67/119 15/69/147 19/70/148
s 2
f 67/100/124 66/99/123 19/101/149 20/102/150
s 12
f 16/79/151 68/77/125 67/78/128 20/80/152
s 9
f 5/139/48 69/133/129 68/134/132 16/140/49
f 70/135/134 69/133/129 5/139/48 24/141/76
s 7
f 22/49/153 57/48/136 70/47/135 24/50/154
s 6
f 31/33/155 45/29/156 72/25/157 71/34/158
f 45/29/156 1/30/159 73/26/160 72/25/157
s 1
f 1/193/161 2/194/162 74/192/163 73/191/164
s 5
f 2/9/165 46/10/166 75/6/167 74/5/168
f 76/13/169 75/6/167 46/10/166 32/14/170
f 77/17/171 76/13/169 32/14/170 60/18/172
f 78/19/173 77/17/171 60/18/172 8/20/174
s 3
f 79/199/175 78/200/176 8/201/177 7/202/178
s 6
f 7/40/179 59/37/180 80/38/181 79/39/182
f 59/37/180 31/33/155 71/34/158 80/38/181
s 22
f 92/81/183 91/82/184 93/83/185 94/84/186
s 6
f 83/22/22 82/21/21 72/25/157 73/26/160
s 1
f 84/188/2 83/187/1 73/191/164 74/192/163
s 5
f 85/2/18 84/1/17 74/5/168 75/6/167
s 23
f 98/87/187 97/88/188 99/89/189 100/90/190
f 101/91/191 98/87/187 100/90/190 102/92/192
s 5
f 78/19/173 88/15/143 87/11/101 77/17/171
s 3
f 79/199/175 89/198/12 88/197/11 78/200/176
s 6
f 80/38/181 90/31/91 89/35/139 79/39/182
s 22
f 94/84/186 93/83/185 95/85/193 96/86/194
s off
f 72/219/195 82/220/196 91/221/197 92/222/198
s 24
f 82/163/199 81/164/200 93/165/201 91/166/202
s 25
f 71/169/203 72/170/204 92/171/205 94/172/206
s 24
f 81/164/200 90/167/207 95/168/208 93/165/201
s off
f 90/223/209 80/224/210 96/225/211 95/226/212
s 25
f 80/173/213 71/169/203 94/172/206 96/174/214
s 26
f 86/175/215 85/176/216 97/177/217 98/178/218
s off
f 85/227/219 75/228/220 99/229/221 97/230/222
s 27
f 75/181/223 76/182/224 100/183/225 99/184/226
s 26
f 87/179/227 86/175/215 98/178/218 101/180/228
s 27
f 76/182/224 77/185/229 102/186/230 100/183/225
s off
f 77/231/231 87/232/232 101/233/233 102/234/234
